<svg width="15" height="18" viewBox="0 0 15 18" fill="none" xmlns="http://www.w3.org/2000/svg">
<path d="M1.92188 6.03906C1.92188 9.10703 4.43203 11.6172 7.5 11.6172C10.568 11.6172 13.0781 9.10703 13.0781 6.03906C13.0781 2.97109 10.568 0.460938 7.5 0.460938C4.43203 0.460938 1.92188 2.97109 1.92188 6.03906ZM11.7656 6.03906C11.7656 8.38516 9.84609 10.3047 7.5 10.3047C5.15391 10.3047 3.23438 8.38516 3.23438 6.03906C3.23438 3.69297 5.15391 1.77344 7.5 1.77344C9.84609 1.77344 11.7656 3.69297 11.7656 6.03906Z" fill="#414354"/>
<path d="M1.00352 17.5891C2.74258 15.85 5.03945 14.8984 7.50039 14.8984C9.96133 14.8984 12.2582 15.85 13.9973 17.5891L14.9324 16.6539C12.9473 14.6852 10.3059 13.5859 7.50039 13.5859C4.69492 13.5859 2.05352 14.6852 0.0683594 16.6539L1.00352 17.5891Z" fill="#414354"/>
</svg>
