<svg width="19" height="15" viewBox="0 0 19 15" fill="none" xmlns="http://www.w3.org/2000/svg">
<path fill-rule="evenodd" clip-rule="evenodd" d="M7.33891 2.03484C7.28425 2.03153 7.22363 2.03125 7.04757 2.03125H5.825C5.07911 2.03125 4.55915 2.03177 4.15435 2.06483C3.7572 2.09729 3.52904 2.15778 3.35621 2.24584C2.98577 2.43458 2.68458 2.73577 2.49584 3.10621C2.40778 3.27904 2.34729 3.50721 2.31483 3.90435C2.28176 4.30915 2.28125 4.82911 2.28125 5.575V9.425C2.28125 10.1709 2.28176 10.6909 2.31483 11.0956C2.34729 11.4928 2.40778 11.721 2.49584 11.8938C2.68458 12.2642 2.98577 12.5655 3.35621 12.7542C3.52904 12.8422 3.7572 12.9027 4.15435 12.9351C4.55915 12.9682 5.07911 12.9688 5.825 12.9688H13.175C13.9209 12.9688 14.4409 12.9682 14.8456 12.9351C15.2428 12.9027 15.471 12.8422 15.6438 12.7542C16.0142 12.5655 16.3154 12.2642 16.5042 11.8938C16.5922 11.721 16.6527 11.4928 16.6851 11.0956C16.7182 10.6909 16.7188 10.1709 16.7188 9.425V8.2C16.7188 7.45406 16.7182 6.93414 16.6851 6.52936C16.6527 6.1322 16.5922 5.904 16.5042 5.73121C16.3154 5.36077 16.0142 5.05958 15.6438 4.87084C15.471 4.78278 15.2428 4.72229 14.8456 4.68983C14.4409 4.65677 13.9209 4.65625 13.175 4.65625H11.9326C11.7837 4.65627 11.6811 4.65628 11.5819 4.65027C10.6259 4.5925 9.74281 4.1199 9.16444 3.3565C9.10441 3.27727 9.04754 3.19188 8.96494 3.06799L8.954 3.05153C8.85635 2.90503 8.82249 2.85476 8.78941 2.8111C8.44239 2.35306 7.91249 2.06951 7.33891 2.03484ZM7.06739 0.718751C7.21627 0.718742 7.31888 0.718733 7.41809 0.724727C8.37414 0.782503 9.25719 1.2551 9.83556 2.01851C9.89559 2.09773 9.95246 2.18312 10.0351 2.30702L10.046 2.32348C10.1437 2.46997 10.1775 2.52025 10.2106 2.5639C10.5576 3.02194 11.0875 3.3055 11.6611 3.34016C11.7158 3.34347 11.7764 3.34375 11.9524 3.34375H13.2031C13.9143 3.34374 14.488 3.34374 14.9526 3.3817C15.4308 3.42078 15.8509 3.50334 16.2397 3.70139C16.8571 4.01597 17.359 4.51794 17.6736 5.13535C17.8716 5.52404 17.9543 5.94416 17.9933 6.42244C18.0312 6.88698 18.0312 7.46063 18.0312 8.17191V9.45309C18.0312 10.1644 18.0312 10.738 17.9933 11.2026C17.9543 11.6808 17.8716 12.1009 17.6736 12.4897C17.359 13.1071 16.8571 13.6091 16.2397 13.9236C15.8509 14.1216 15.4308 14.2043 14.9526 14.2433C14.488 14.2812 13.9144 14.2812 13.2031 14.2812H5.7969C5.08567 14.2812 4.51201 14.2812 4.04746 14.2433C3.56916 14.2043 3.14903 14.1216 2.76035 13.9236C2.14294 13.6091 1.64097 13.1071 1.32639 12.4897C1.12834 12.1009 1.04578 11.6808 1.00669 11.2026C0.968742 10.738 0.968742 10.1643 0.96875 9.45309V5.54691C0.968742 4.83568 0.968742 4.26201 1.00669 3.79746C1.04578 3.31916 1.12834 2.89904 1.32639 2.51035C1.64097 1.89294 2.14294 1.39097 2.76035 1.07639C3.14903 0.878342 3.56916 0.795777 4.04746 0.756699C4.51201 0.718742 5.08568 0.718742 5.79691 0.718751H7.06739Z" fill="#414354"/>
</svg>
