<svg width="214" height="85" viewBox="0 0 214 85" fill="none" xmlns="http://www.w3.org/2000/svg">
<path d="M36.3698 42.1013C35.5591 41.6904 35.222 40.6811 35.8195 39.9962C36.5634 39.1435 37.5195 38.4881 38.6035 38.1044C40.2094 37.5359 41.9726 37.6074 43.5273 38.304C45.082 39.0006 46.3089 40.2688 46.9535 41.8458C47.3886 42.9101 47.5359 44.0599 47.3947 45.1827C47.2812 46.0845 46.3036 46.5047 45.4574 46.1731C44.6111 45.8416 44.2397 44.8592 44.1314 43.9568C44.096 43.6619 44.0211 43.3707 43.9069 43.0913C43.5822 42.2971 42.9644 41.6584 42.1814 41.3076C41.3985 40.9568 40.5106 40.9208 39.7018 41.2071C39.4172 41.3079 39.1501 41.4458 38.9064 41.6157C38.1609 42.1355 37.1805 42.5122 36.3698 42.1013Z" fill="white"/>
<path d="M30.806 41.6966C29.9684 41.4069 29.5161 40.4862 29.9105 39.6925C30.4847 38.5371 31.2322 37.4739 32.1286 36.5432C33.3959 35.2273 34.929 34.209 36.6178 33.5615C38.3065 32.914 40.1087 32.6534 41.8949 32.7986C43.681 32.9437 45.4066 33.4909 46.9475 34.4008C48.4884 35.3107 49.8063 36.5607 50.8063 38.0609C51.8064 39.561 52.4637 41.274 52.7311 43.0765C52.9984 44.8791 52.8691 46.7264 52.3524 48.4856C51.9899 49.7199 51.4431 50.8892 50.734 51.9532C50.2361 52.7003 49.1964 52.758 48.5293 52.1571C47.8774 51.5698 47.8309 50.5737 48.2874 49.8243C48.7102 49.1301 49.0421 48.3809 49.2726 47.596C49.6524 46.3028 49.7475 44.9448 49.551 43.6197C49.3545 42.2945 48.8712 41.0353 48.1361 39.9325C47.4009 38.8297 46.4321 37.9108 45.2993 37.2419C44.1665 36.5729 42.898 36.1707 41.585 36.064C40.2719 35.9573 38.947 36.1488 37.7056 36.6248C36.4641 37.1008 35.3371 37.8494 34.4054 38.8168C33.8436 39.4002 33.3613 40.0544 32.9697 40.761C32.5413 41.5341 31.6413 41.9855 30.806 41.6966Z" fill="white"/>
<path d="M26.7364 37.4488C25.7798 36.9699 25.3862 35.7974 25.9722 34.9025C27.153 33.0995 28.6629 31.5238 30.4309 30.2584C32.7282 28.6142 35.3942 27.5416 38.2055 27.1305C41.0168 26.7194 43.8915 26.9819 46.5886 27.8959C49.2857 28.8099 51.7267 30.3488 53.7069 32.3836C55.6871 34.4184 57.1489 36.8898 57.9697 39.5907C58.7905 42.2917 58.9465 45.1433 58.4245 47.9068C57.9025 50.6703 56.7177 53.265 54.9696 55.4734C53.6124 57.1879 51.9464 58.6309 50.0602 59.7333C49.1538 60.2631 48.0216 59.8341 47.5796 58.8819C47.1296 57.9125 47.5681 56.773 48.4724 56.2034C49.7888 55.3742 50.9571 54.328 51.9248 53.1054C53.2939 51.3758 54.2217 49.3438 54.6305 47.1796C55.0393 45.0154 54.9172 42.7821 54.2744 40.6668C53.6316 38.5516 52.4868 36.6161 50.9359 35.0225C49.3851 33.429 47.4735 32.2238 45.3612 31.508C43.249 30.7922 40.9977 30.5866 38.796 30.9086C36.5943 31.2305 34.5064 32.0705 32.7073 33.3582C31.4332 34.2701 30.3303 35.3877 29.4418 36.6605C28.8332 37.5324 27.6872 37.9247 26.7364 37.4488Z" fill="white"/>
<path d="M25.3999 29.7465C24.7308 29.093 24.7186 28.0142 25.4254 27.4018C27.542 25.5683 29.9901 24.1392 32.6483 23.1916C35.8428 22.0529 39.2603 21.6383 42.6515 21.978C46.0427 22.3178 49.3222 23.4033 52.2509 25.1556C55.1796 26.9078 57.6837 29.2825 59.5806 32.1066C61.4775 34.9307 62.7195 38.133 63.2158 41.4801C63.7122 44.8271 63.4506 48.2345 62.45 51.4539C61.4494 54.6732 59.735 57.6234 57.4319 60.0893C55.5045 62.1528 53.2055 63.8338 50.656 65.05C49.8277 65.4451 48.86 65.0239 48.5154 64.1733C48.1647 63.3074 48.5934 62.3283 49.4305 61.9137C51.5029 60.8873 53.3743 59.4978 54.9533 57.8072C56.9177 55.7039 58.38 53.1875 59.2335 50.4415C60.087 47.6955 60.3102 44.7891 59.8868 41.9342C59.4634 39.0793 58.4041 36.3478 56.7861 33.939C55.1681 31.5301 53.0322 29.5045 50.5341 28.0099C48.036 26.5153 45.2387 25.5894 42.3461 25.2996C39.4535 25.0098 36.5385 25.3634 33.8137 26.3347C31.617 27.1178 29.5886 28.2863 27.8225 29.7806C27.1163 30.3781 26.0616 30.3929 25.3999 29.7465Z" fill="white"/>
<path d="M29.9141 20.7353C29.5765 19.9183 29.9525 18.9766 30.7802 18.6662C33.8338 17.5209 37.0483 16.8987 40.2846 16.8303C44.0461 16.7508 47.7614 17.4212 51.2131 18.8021C54.6648 20.1831 57.7834 22.2469 60.3865 24.8727C62.9896 27.4986 65.0249 30.6337 66.3731 34.0946C67.7214 37.5556 68.3555 41.2727 68.2385 45.0286C68.1215 48.7844 67.2556 52.5035 65.6916 55.968C64.1275 59.4326 61.8967 62.5731 59.1298 65.2057C56.767 67.4537 54.0538 69.2928 51.1086 70.6474C50.2791 71.0289 49.3188 70.594 49.0048 69.7366C48.7009 68.9069 49.1176 67.9912 49.9186 67.6183C52.4794 66.4263 54.8394 64.8189 56.8982 62.86C59.3429 60.534 61.3139 57.7593 62.6958 54.6982C64.0777 51.6371 64.8428 48.3511 64.9462 45.0327C65.0496 41.7142 64.4893 38.43 63.298 35.3721C62.1068 32.3142 60.3086 29.5442 58.0086 27.2241C55.7087 24.9041 52.9532 23.0806 49.9035 21.8605C46.8538 20.6404 43.5711 20.0481 40.2477 20.1183C37.4725 20.177 34.7154 20.6966 32.0888 21.6522C31.2327 21.9637 30.2621 21.5773 29.9141 20.7353Z" fill="white"/>
<path d="M54.4609 16.9308C54.7846 16.0519 55.7612 15.5962 56.6198 15.9704C61.8222 18.2383 66.231 22.0343 69.2594 26.8819C72.294 31.7393 73.7872 37.4038 73.5651 43.1314C73.5292 44.0569 72.707 44.7337 71.7847 44.6499C70.8541 44.5654 70.176 43.7392 70.2041 42.8052C70.3539 37.8313 69.0373 32.9207 66.4012 28.7011C63.7686 24.4872 59.9528 21.1748 55.4497 19.1667C54.5919 18.7842 54.1364 17.8121 54.4609 16.9308Z" fill="white"/>
<path d="M65.7775 63.826C66.5046 64.3947 66.6512 65.4424 66.0621 66.1531C62.7756 70.1181 58.5234 73.1108 53.7451 74.8231C52.833 75.1499 51.8603 74.5988 51.6067 73.6637C51.3588 72.7497 51.8927 71.8117 52.7822 71.4867C56.8451 70.0022 60.4703 67.4651 63.3071 64.1209C63.9286 63.3883 65.0207 63.2342 65.7775 63.826Z" fill="white"/>
<path d="M75.4211 32.4747C76.3082 32.2042 77.2547 32.6884 77.4983 33.5833C78.1349 35.9226 78.476 38.3239 78.5136 40.7311C78.5288 41.7027 77.6874 42.446 76.7182 42.3765C75.7829 42.3094 75.078 41.5083 75.0588 40.5708C75.0181 38.5856 74.7433 36.6057 74.2402 34.6718C73.9977 33.7399 74.5001 32.7556 75.4211 32.4747Z" fill="white"/>
<path d="M82.9143 58.1721L95.7381 29.4008H102.314L115.179 58.1721H108.192L97.6699 32.7711H100.3L89.7372 58.1721H82.9143ZM89.3262 52.0068L91.0935 46.9513H105.89L107.699 52.0068H89.3262ZM118.164 58.1721V29.4008H130.618C133.194 29.4008 135.413 29.8255 137.277 30.6749C139.14 31.497 140.579 32.6889 141.592 34.2508C142.606 35.8127 143.113 37.676 143.113 39.8407C143.113 41.978 142.606 43.8275 141.592 45.3894C140.579 46.9239 139.14 48.1021 137.277 48.9242C135.413 49.7462 133.194 50.1572 130.618 50.1572H121.863L124.823 47.239V58.1721H118.164ZM136.455 58.1721L129.262 47.7322H136.372L143.648 58.1721H136.455ZM124.823 47.9788L121.863 44.8551H130.248C132.303 44.8551 133.838 44.4167 134.852 43.5398C135.866 42.6356 136.372 41.4025 136.372 39.8407C136.372 38.2514 135.866 37.0183 134.852 36.1415C133.838 35.2646 132.303 34.8262 130.248 34.8262H121.863L124.823 31.6614V47.9788ZM154.513 40.9915H168.364V46.1704H154.513V40.9915ZM155.006 52.8289H170.666V58.1721H148.389V29.4008H170.132V34.744H155.006V52.8289ZM175.964 58.1721V29.4008H189.034C192.158 29.4008 194.912 30.0036 197.296 31.2092C199.68 32.3875 201.543 34.0453 202.886 36.1826C204.228 38.3199 204.9 40.8545 204.9 43.7864C204.9 46.691 204.228 49.2256 202.886 51.3903C201.543 53.5276 199.68 55.1991 197.296 56.4047C194.912 57.583 192.158 58.1721 189.034 58.1721H175.964ZM182.622 52.7056H188.706C190.624 52.7056 192.281 52.3493 193.679 51.6369C195.104 50.8971 196.2 49.8558 196.967 48.5132C197.762 47.1705 198.159 45.5949 198.159 43.7864C198.159 41.9506 197.762 40.375 196.967 39.0597C196.2 37.7171 195.104 36.6895 193.679 35.9771C192.281 35.2372 190.624 34.8673 188.706 34.8673H182.622V52.7056Z" fill="white"/>
</svg>
