<svg width="987" height="1152" viewBox="0 0 987 1152" fill="none" xmlns="http://www.w3.org/2000/svg">
<rect width="987" height="1152" fill="url(#paint0_linear_2_966)"/>
<path d="M788.718 892.151C825.054 892.151 854.511 921.235 854.511 957.113C854.511 992.991 825.054 1022.08 788.718 1022.08C752.382 1022.08 722.926 992.991 722.926 957.113C722.926 921.235 752.382 892.151 788.718 892.151Z" fill="#FF8B61"/>
<path d="M789.044 918.653C810.376 918.653 827.669 935.727 827.669 956.79C827.669 977.852 810.376 994.927 789.044 994.927C767.713 994.927 750.42 977.852 750.42 956.79C750.42 935.727 767.713 918.653 789.044 918.653Z" fill="#2D374C"/>
<path d="M789.046 936.752C800.254 936.752 809.34 945.723 809.34 956.79C809.34 967.857 800.254 976.828 789.046 976.828C777.838 976.828 768.752 967.857 768.752 956.79C768.752 945.723 777.838 936.752 789.046 936.752Z" fill="#F1E3CF"/>
<path d="M658.104 730.145C658.104 747.775 672.578 762.068 690.434 762.068C708.29 762.068 722.765 747.775 722.765 730.145C722.765 712.515 708.29 698.223 690.434 698.223C672.578 698.223 658.104 712.515 658.104 730.145Z" fill="#F2994A"/>
<path d="M591.504 730.145C591.504 747.775 605.979 762.068 623.834 762.068C641.69 762.068 656.165 747.775 656.165 730.145C656.165 712.515 641.69 698.223 623.834 698.223C605.979 698.223 591.504 712.515 591.504 730.145Z" fill="#FF8B61"/>
<path d="M658.104 665.662C658.104 683.292 672.578 697.584 690.434 697.584C708.29 697.584 722.765 683.292 722.765 665.662C722.765 648.031 708.29 633.739 690.434 633.739C672.578 633.739 658.104 648.031 658.104 665.662Z" fill="#FF8B61"/>
<path d="M591.342 632.303V664.864C591.342 682.846 606.179 697.424 624.481 697.424C642.783 697.424 657.619 682.846 657.619 664.864C657.619 646.881 642.783 632.303 624.481 632.303H591.342Z" fill="#36868E"/>
<rect width="67.2473" height="66.3987" transform="matrix(-1 0 0 1 822.502 664.225)" fill="#F1E3CF"/>
<path d="M788.385 668.968L759.396 697.591L788.385 726.214L817.373 697.591L788.385 668.968Z" fill="#36868E"/>
<path d="M841.9 644.752H802.134C802.134 666.437 819.938 684.017 841.9 684.017L841.9 644.752Z" fill="#F2994A"/>
<path d="M841.9 749.777V710.513C819.938 710.513 802.134 728.092 802.134 749.777H841.9Z" fill="#F2994A"/>
<path d="M736.503 749.777H776.27C776.27 728.092 758.465 710.513 736.503 710.513V749.777Z" fill="#F2994A"/>
<path d="M736.503 644.752V684.017C758.465 684.017 776.27 666.437 776.27 644.752H736.503Z" fill="#F2994A"/>
<path d="M920.75 1040.85L874.077 1086.97L920.75 1133.09L967.423 1086.97L920.75 1040.85Z" fill="#2D374C"/>
<path d="M937.369 1070.55H904.133V1103.39H937.369V1070.55Z" fill="#36868E"/>
<path d="M722.926 567.667V632.302H788.388C824.906 632.302 854.511 603.072 854.511 567.014V502.378H789.049C752.53 502.378 722.926 531.609 722.926 567.667Z" fill="#36868E"/>
<path d="M751.357 567.34C751.357 588.434 768.676 605.534 790.039 605.534C811.403 605.534 828.722 588.434 828.722 567.34V529.146H790.039C768.676 529.146 751.357 546.246 751.357 567.34Z" fill="#2D374C"/>
<path d="M722.926 606.644V632.629H749.243C771.045 632.629 788.718 615.178 788.718 593.652V567.667H762.401C740.6 567.667 722.926 585.118 722.926 606.644Z" fill="#FF8B61"/>
<path d="M986.096 567.667V632.302H920.634C884.115 632.302 854.51 603.072 854.51 567.014V502.378H919.972C956.491 502.378 986.096 531.609 986.096 567.667Z" fill="#F2994A"/>
<path d="M957.662 567.34C957.662 588.434 940.344 605.534 918.98 605.534C897.617 605.534 880.298 588.434 880.298 567.34V529.146H918.98C940.344 529.146 957.662 546.246 957.662 567.34Z" fill="#2D374C"/>
<path d="M986.096 606.644V632.629H959.779C937.977 632.629 920.303 615.178 920.303 593.652V567.667H946.62C968.422 567.667 986.096 585.118 986.096 606.644Z" fill="#FF8B61"/>
<path d="M920.303 892.151C883.967 892.151 854.51 921.236 854.51 957.114C854.51 992.991 883.967 1022.08 920.303 1022.08H986.096V957.114C986.096 921.236 956.639 892.151 920.303 892.151Z" fill="#F1E3CF"/>
<path d="M986.096 983.726C986.096 961.997 968.231 944.383 946.502 944.383C925.048 944.383 907.409 961.775 907.409 983.229C907.409 1004.68 924.801 1022.08 946.256 1022.08H986.096V983.726Z" fill="#F2994A"/>
<path d="M920.303 916.798C898.118 916.798 880.133 934.556 880.133 956.461C880.133 978.366 898.118 996.124 920.303 996.124C942.488 996.124 960.473 978.366 960.473 956.461C960.473 934.556 942.488 916.798 920.303 916.798Z" fill="#36868E"/>
<path d="M920.303 933.242C907.316 933.242 896.788 943.637 896.788 956.46C896.788 969.284 907.316 979.679 920.303 979.679C933.29 979.679 943.818 969.284 943.818 956.46C943.818 943.637 933.29 933.242 920.303 933.242Z" fill="#2D374C"/>
<path d="M657.154 881.471C687.687 881.471 712.439 857.031 712.439 826.883C712.439 796.736 687.687 772.296 657.154 772.296C626.621 772.296 601.869 796.736 601.869 826.883C601.869 857.031 626.621 881.471 657.154 881.471Z" fill="#F1E3CF"/>
<path d="M655.218 892.151C619.94 892.151 591.342 863.913 591.342 829.081V827.188H593.258C628.536 827.188 657.134 855.426 657.134 890.259V892.151H655.218Z" fill="#F2994A"/>
<path d="M721.009 827.188H722.925V829.081C722.925 863.913 694.327 892.151 659.049 892.151H657.133V890.259C657.133 855.426 685.731 827.188 721.009 827.188Z" fill="#36868E"/>
<path d="M659.049 827.189H657.133V825.297C657.133 790.464 685.731 762.227 721.009 762.227H722.925V764.119C722.925 798.951 694.327 827.189 659.049 827.189Z" fill="#F2994A"/>
<path d="M593.258 762.227C628.536 762.227 657.134 790.464 657.134 825.297V827.189H655.218C619.94 827.189 591.342 798.951 591.342 764.119V762.227H593.258Z" fill="#36868E"/>
<path d="M986.096 892.151H854.51V762.227C927.183 762.227 986.096 820.396 986.096 892.151Z" fill="#F2994A"/>
<path d="M929.193 892.151H854.51V818.229C895.756 818.229 929.193 851.325 929.193 892.151Z" fill="#F1E3CF"/>
<path d="M888.781 892.151H854.511V858.229C873.438 858.229 888.781 873.416 888.781 892.151Z" fill="#2D374C"/>
<path d="M854.511 762.227V892.151H722.926C722.926 820.396 781.838 762.227 854.511 762.227Z" fill="#36868E"/>
<path d="M854.51 818.229V892.151H779.826C779.826 851.325 813.263 818.229 854.51 818.229Z" fill="#F1E3CF"/>
<path d="M854.511 858.229V892.151H820.24C820.24 873.416 835.584 858.229 854.511 858.229Z" fill="#2D374C"/>
<path d="M788.718 1022.08C825.054 1022.08 854.511 1051.16 854.511 1087.04C854.511 1122.92 825.054 1152 788.718 1152C752.382 1152 722.926 1122.92 722.926 1087.04C722.926 1051.16 752.382 1022.08 788.718 1022.08Z" fill="#36868E"/>
<path d="M789.042 1048.25C810.915 1048.25 828.647 1065.76 828.647 1087.36C828.647 1108.95 810.915 1126.46 789.042 1126.46C767.169 1126.46 749.438 1108.95 749.438 1087.36C749.438 1065.76 767.169 1048.25 789.042 1048.25Z" fill="#F1E3CF"/>
<path d="M789.688 1067.09C801.384 1067.09 810.865 1076.45 810.865 1088C810.865 1099.54 801.384 1108.9 789.688 1108.9C777.993 1108.9 768.512 1099.54 768.512 1088C768.512 1076.45 777.993 1067.09 789.688 1067.09Z" fill="#2D374C"/>
<path d="M854.51 1073.15V1152H774.654C774.654 1108.45 810.407 1073.15 854.51 1073.15Z" fill="#F2994A"/>
<path d="M394.934 924.233C394.934 906.603 409.408 892.31 427.264 892.31C445.12 892.31 459.594 906.603 459.594 924.233C459.594 941.863 445.12 956.155 427.264 956.155C409.408 956.155 394.934 941.863 394.934 924.233Z" fill="#F2994A"/>
<path d="M328.332 924.233C328.332 906.603 342.807 892.31 360.663 892.31C378.518 892.31 392.993 906.603 392.993 924.233C392.993 941.863 378.518 956.155 360.663 956.155C342.807 956.155 328.332 941.863 328.332 924.233Z" fill="#FF8B61"/>
<path d="M394.934 988.715C394.934 971.085 409.408 956.793 427.264 956.793C445.12 956.793 459.594 971.085 459.594 988.715C459.594 1006.35 445.12 1020.64 427.264 1020.64C409.408 1020.64 394.934 1006.35 394.934 988.715Z" fill="#FF8B61"/>
<path d="M328.172 1022.08V989.514C328.172 971.531 343.009 956.953 361.311 956.953C379.613 956.953 394.449 971.531 394.449 989.514C394.449 1007.5 379.613 1022.08 361.311 1022.08H328.172Z" fill="#36868E"/>
<path d="M97.3316 1085.92C79.476 1085.92 65.0012 1071.63 65.0012 1054C65.0012 1036.37 79.476 1022.08 97.3316 1022.08C115.187 1022.08 129.662 1036.37 129.662 1054C129.662 1071.63 115.187 1085.92 97.3316 1085.92Z" fill="#F2994A"/>
<path d="M97.3316 1152C79.476 1152 65.0012 1137.71 65.0012 1120.08C65.0012 1102.45 79.476 1088.16 97.3316 1088.16C115.187 1088.16 129.662 1102.45 129.662 1120.08C129.662 1137.71 115.187 1152 97.3316 1152Z" fill="#FF8B61"/>
<path d="M162.962 1085.92C145.107 1085.92 130.632 1071.63 130.632 1054C130.632 1036.37 145.107 1022.08 162.962 1022.08C180.818 1022.08 195.293 1036.37 195.293 1054C195.293 1071.63 180.818 1085.92 162.962 1085.92Z" fill="#FF8B61"/>
<path d="M196.586 1152H163.447C145.145 1152 130.308 1137.35 130.308 1119.28C130.308 1101.21 145.145 1086.56 163.447 1086.56C181.749 1086.56 196.586 1101.21 196.586 1119.28V1152Z" fill="#36868E"/>
<rect x="559.332" y="990.153" width="67.2472" height="66.3987" transform="rotate(-180 559.332 990.153)" fill="#F1E3CF"/>
<path d="M525.217 985.41L496.228 956.787L525.217 928.164L554.206 956.787L525.217 985.41Z" fill="#36868E"/>
<path d="M578.73 1009.63H538.964C538.964 987.941 556.768 970.361 578.73 970.361L578.73 1009.63Z" fill="#F2994A"/>
<path d="M578.73 904.601V943.865C556.768 943.865 538.964 926.286 538.964 904.601H578.73Z" fill="#F2994A"/>
<path d="M473.333 904.601H513.1C513.1 926.286 495.296 943.865 473.333 943.865V904.601Z" fill="#F2994A"/>
<path d="M473.333 1009.63V970.361C495.296 970.361 513.1 987.941 513.1 1009.63H473.333Z" fill="#F2994A"/>
<path d="M393.964 1022.08C430.301 1022.08 459.757 1051.16 459.757 1087.04C459.757 1122.92 430.301 1152 393.964 1152H328.172L328.172 1087.04C328.172 1051.16 357.628 1022.08 393.964 1022.08Z" fill="#F1E3CF"/>
<path d="M367.515 1074.31C389.244 1074.31 406.858 1091.7 406.858 1113.15C406.858 1134.61 389.244 1152 367.515 1152H328.172L328.172 1113.15C328.172 1091.7 345.786 1074.31 367.515 1074.31Z" fill="#2D374C"/>
<path d="M393.965 1046.72C416.15 1046.72 434.135 1064.48 434.135 1086.38C434.135 1108.29 416.15 1126.05 393.965 1126.05C371.78 1126.05 353.795 1108.29 353.795 1086.38C353.795 1064.48 371.78 1046.72 393.965 1046.72Z" fill="#36868E"/>
<path d="M393.964 1063.17C406.951 1063.17 417.479 1073.56 417.479 1086.39C417.479 1099.21 406.951 1109.6 393.964 1109.6C380.977 1109.6 370.449 1099.21 370.449 1086.39C370.449 1073.56 380.977 1063.17 393.964 1063.17Z" fill="#2D374C"/>
<path d="M459.754 1086.71V1022.08H525.216C561.735 1022.08 591.339 1051.31 591.339 1087.36V1152H525.877C489.358 1152 459.754 1122.77 459.754 1086.71Z" fill="#36868E"/>
<path d="M488.186 1087.04C488.186 1065.94 505.504 1048.84 526.868 1048.84C548.231 1048.84 565.55 1065.94 565.55 1087.04V1125.23H526.868C505.504 1125.23 488.186 1108.13 488.186 1087.04Z" fill="#2D374C"/>
<path d="M459.754 1047.73V1021.75H486.071C507.873 1021.75 525.547 1039.2 525.547 1060.73V1086.71H499.23C477.428 1086.71 459.754 1069.26 459.754 1047.73Z" fill="#FF8B61"/>
<path d="M525.547 892.151C489.211 892.151 459.755 863.067 459.755 827.189C459.755 791.312 489.211 762.227 525.547 762.227H591.34V827.189C591.34 863.067 561.884 892.151 525.547 892.151Z" fill="#F1E3CF"/>
<path d="M591.34 800.577C591.34 822.305 573.475 839.92 551.747 839.92C530.292 839.92 512.653 822.528 512.653 801.073C512.653 779.619 530.046 762.226 551.5 762.226H591.34V800.577Z" fill="#F2994A"/>
<path d="M525.547 867.505C503.362 867.505 485.377 849.747 485.377 827.842C485.377 805.937 503.362 788.179 525.547 788.179C547.732 788.179 565.717 805.937 565.717 827.842C565.717 849.747 547.732 867.505 525.547 867.505Z" fill="#36868E"/>
<path d="M525.547 851.061C512.56 851.061 502.032 840.665 502.032 827.842C502.032 815.019 512.56 804.624 525.547 804.624C538.534 804.624 549.062 815.019 549.062 827.842C549.062 840.665 538.534 851.061 525.547 851.061Z" fill="#2D374C"/>
<path d="M920.463 751.668C950.996 751.668 975.748 727.24 975.748 697.106C975.748 666.972 950.996 642.544 920.463 642.544C889.93 642.544 865.178 666.972 865.178 697.106C865.178 727.24 889.93 751.668 920.463 751.668Z" fill="#F1E3CF"/>
<path d="M986.095 632.303C986.095 668.004 956.856 696.945 920.787 696.945C920.787 661.244 950.026 632.303 986.095 632.303Z" fill="#F2994A"/>
<path d="M919.818 695.062V696.945H917.916C882.898 696.945 854.511 668.847 854.511 634.186V632.303H856.413C891.431 632.303 919.818 660.401 919.818 695.062Z" fill="#36868E"/>
<path d="M917.915 697.585H919.817V699.468C919.817 734.129 891.43 762.227 856.412 762.227H854.51V760.344C854.51 725.683 882.897 697.585 917.915 697.585Z" fill="#F2994A"/>
<path d="M986.096 760.344V762.227H984.194C949.176 762.227 920.788 734.129 920.788 699.468V697.585H922.69C957.708 697.585 986.096 725.683 986.096 760.344Z" fill="#36868E"/>
<path d="M295.603 1152H229.152L262.378 1119.19L295.603 1152Z" fill="#36868E"/>
<path d="M196.586 1152L196.586 1022.08H328.171L196.586 1152Z" fill="#F1E3CF"/>
<path d="M328.171 1152L196.586 1022.08H328.171V1152Z" fill="#F2994A"/>
<path d="M690.688 1022.08H624.237L657.462 989.27L690.688 1022.08Z" fill="#FF8B61"/>
<path d="M591.671 1022.08V892.152H723.256L591.671 1022.08Z" fill="#36868E"/>
<path d="M723.256 1022.08L591.671 892.152H723.256V1022.08Z" fill="#F1E3CF"/>
<path d="M624.236 1022.08H690.687L657.462 1054.88L624.236 1022.08Z" fill="#FF8B61"/>
<path d="M723.255 1022.08V1152H591.67L723.255 1022.08Z" fill="#36868E"/>
<path d="M591.67 1022.08L723.255 1152H591.67V1022.08Z" fill="#F1E3CF"/>
<path d="M920.876 372L986.669 372V436.962C986.669 472.84 957.213 501.924 920.876 501.924H855.084V436.962C855.084 401.085 884.54 372 920.876 372Z" fill="#F1E3CF"/>
<path d="M920.877 400.074C942.241 400.074 959.559 417.174 959.559 438.268C959.559 459.362 942.241 476.462 920.877 476.462H882.195V438.268C882.195 417.174 899.514 400.074 920.877 400.074Z" fill="#36868E"/>
<path d="M960.683 372H987V397.985C987 419.511 969.326 436.962 947.524 436.962H921.207V410.977C921.207 389.451 938.881 372 960.683 372Z" fill="#B5B5B5"/>
<defs>
<linearGradient id="paint0_linear_2_966" x1="987" y1="1152" x2="220.933" y2="-27.3736" gradientUnits="userSpaceOnUse">
<stop stop-color="#1B5237"/>
<stop offset="1" stop-color="#4E8D6E"/>
</linearGradient>
</defs>
</svg>
