<svg width="19" height="15" viewBox="0 0 19 15" fill="none" xmlns="http://www.w3.org/2000/svg">
<path d="M9.8495 8.71286L10.9495 7.01286C10.9857 6.95016 11.0048 6.87906 11.0048 6.80666C11.0048 6.73426 10.9857 6.66306 10.9495 6.60036C10.9132 6.53866 10.8593 6.48906 10.7948 6.45796C10.7303 6.42676 10.658 6.41546 10.587 6.42536C8.3995 6.60036 6.71205 6.76286 6.71205 6.76286C6.6549 6.76626 6.59928 6.78266 6.54944 6.81076C6.49961 6.83896 6.45689 6.87816 6.42455 6.92536C6.39995 6.97826 6.38721 7.03586 6.38721 7.09416C6.38721 7.15246 6.39995 7.21006 6.42455 7.26286L7.6745 10.9504C7.6943 11.0205 7.7346 11.083 7.7903 11.1298C7.8461 11.1766 7.9146 11.2056 7.987 11.2129C8.0498 11.2133 8.1116 11.1974 8.1664 11.1667C8.2212 11.136 8.2671 11.0917 8.2995 11.0379L9.3995 9.35036L11.9995 11.0629C12.0643 11.1007 12.1372 11.1221 12.212 11.1254C12.2765 11.1256 12.34 11.1097 12.3967 11.0791C12.4535 11.0485 12.5017 11.0043 12.537 10.9504C12.5897 10.8653 12.6074 10.7631 12.5865 10.6653C12.5655 10.5674 12.5075 10.4815 12.4245 10.4254L9.8495 8.71286ZM8.1245 9.96286L7.2745 7.46286L9.887 7.23786L8.1245 9.96286Z" fill="#414354"/>
<path d="M16.612 0.487305H2.38701C1.85327 0.487305 1.34138 0.699345 0.963962 1.07675C0.586542 1.45417 0.374512 1.96606 0.374512 2.4998V12.4998C0.374512 13.0336 0.586542 13.5454 0.963962 13.9229C1.34138 14.3003 1.85327 14.5123 2.38701 14.5123H16.612C17.1458 14.5123 17.6577 14.3003 18.0351 13.9229C18.4125 13.5454 18.6245 13.0336 18.6245 12.4998V2.4998C18.6245 1.96606 18.4125 1.45417 18.0351 1.07675C17.6577 0.699345 17.1458 0.487305 16.612 0.487305ZM2.38701 1.2498H16.612C16.9436 1.2498 17.2615 1.3815 17.4959 1.61592C17.7303 1.85034 17.862 2.16829 17.862 2.4998V3.39981H1.13701V2.4998C1.13701 2.16829 1.26871 1.85034 1.50313 1.61592C1.73755 1.3815 2.05549 1.2498 2.38701 1.2498ZM16.612 13.7498H2.38701C2.05549 13.7498 1.73755 13.6181 1.50313 13.3837C1.26871 13.1493 1.13701 12.8313 1.13701 12.4998V4.1623H17.862V12.4998C17.862 12.664 17.8297 12.8265 17.7669 12.9782C17.7041 13.1298 17.612 13.2676 17.4959 13.3837C17.3798 13.4998 17.242 13.5918 17.0904 13.6547C16.9387 13.7175 16.7762 13.7498 16.612 13.7498Z" fill="#414354"/>
<path d="M16.2963 0.555664H2.70377C2.19376 0.555664 1.70464 0.758274 1.344 1.1189C0.983372 1.47954 0.780762 1.96866 0.780762 2.47868V12.034C0.780762 12.544 0.983372 13.0331 1.344 13.3938C1.70464 13.7544 2.19376 13.957 2.70377 13.957H16.2963C16.8063 13.957 17.2954 13.7544 17.656 13.3938C18.0167 13.0331 18.2193 12.544 18.2193 12.034V2.47868C18.2193 1.96866 18.0167 1.47954 17.656 1.1189C17.2954 0.758274 16.8063 0.555664 16.2963 0.555664ZM2.70377 1.28426H16.2963C16.613 1.28426 16.9168 1.4101 17.1408 1.63409C17.3648 1.85809 17.4907 2.1619 17.4907 2.47868V3.33866H1.50936V2.47868C1.50936 2.1619 1.6352 1.85809 1.85919 1.63409C2.08319 1.4101 2.387 1.28426 2.70377 1.28426ZM16.2963 13.2284H2.70377C2.387 13.2284 2.08319 13.1026 1.85919 12.8786C1.6352 12.6546 1.50936 12.3508 1.50936 12.034V4.06725H17.4907V12.034C17.4907 12.1909 17.4598 12.3462 17.3998 12.4911C17.3397 12.636 17.2517 12.7677 17.1408 12.8786C17.0299 12.9895 16.8983 13.0775 16.7533 13.1375C16.6084 13.1975 16.4531 13.2284 16.2963 13.2284Z" fill="#414354"/>
<path d="M16.2963 1.11133H2.70377C2.19376 1.11133 1.70464 1.31393 1.344 1.67457C0.983372 2.0352 0.780762 2.52433 0.780762 3.03434V12.5897C0.780762 13.0997 0.983372 13.5888 1.344 13.9494C1.70464 14.3101 2.19376 14.5127 2.70377 14.5127H16.2963C16.8063 14.5127 17.2954 14.3101 17.656 13.9494C18.0167 13.5888 18.2193 13.0997 18.2193 12.5897V3.03434C18.2193 2.52433 18.0167 2.0352 17.656 1.67457C17.2954 1.31393 16.8063 1.11133 16.2963 1.11133ZM2.70377 1.83992H16.2963C16.613 1.83992 16.9168 1.96576 17.1408 2.18976C17.3648 2.41376 17.4907 2.71756 17.4907 3.03434V3.89432H1.50936V3.03434C1.50936 2.71756 1.6352 2.41376 1.85919 2.18976C2.08319 1.96576 2.387 1.83992 2.70377 1.83992ZM16.2963 13.7841H2.70377C2.387 13.7841 2.08319 13.6582 1.85919 13.4343C1.6352 13.2103 1.50936 12.9065 1.50936 12.5897V4.62291H17.4907V12.5897C17.4907 12.7465 17.4598 12.9018 17.3998 13.0468C17.3397 13.1917 17.2517 13.3233 17.1408 13.4343C17.0299 13.5452 16.8983 13.6331 16.7533 13.6932C16.6084 13.7532 16.4531 13.7841 16.2963 13.7841Z" fill="#414354"/>
<path d="M2.38764 2.82492C2.47342 2.83249 2.55947 2.81382 2.63441 2.77139C2.70934 2.72896 2.76962 2.66477 2.80726 2.58731C2.84489 2.50986 2.85811 2.4228 2.84517 2.33767C2.83222 2.25253 2.79372 2.17334 2.73476 2.11058C2.6758 2.04781 2.59916 2.00444 2.515 1.9862C2.43084 1.96797 2.34313 1.97572 2.26348 2.00845C2.18382 2.04118 2.11599 2.09733 2.06897 2.16947C2.02194 2.24161 1.99794 2.32633 2.00014 2.41242C2.0028 2.51676 2.04377 2.61647 2.11524 2.69255C2.1867 2.76862 2.28366 2.81574 2.38764 2.82492Z" fill="#414354"/>
<path d="M3.44906 2.8248C3.54772 2.80769 3.63716 2.75631 3.70163 2.6797C3.7661 2.60309 3.80144 2.50618 3.80144 2.40605C3.80144 2.30593 3.7661 2.20902 3.70163 2.13241C3.63716 2.0558 3.54772 2.00441 3.44906 1.9873C3.35041 2.00441 3.26097 2.0558 3.1965 2.13241C3.13203 2.20902 3.09668 2.30593 3.09668 2.40605C3.09668 2.50618 3.13203 2.60309 3.1965 2.6797C3.26097 2.75631 3.35041 2.80769 3.44906 2.8248Z" fill="#414354"/>
<path d="M4.50008 2.82444C4.58515 2.8269 4.669 2.80377 4.74078 2.75804C4.81255 2.71231 4.86894 2.64608 4.90265 2.56793C4.93636 2.48978 4.94582 2.40331 4.92982 2.31972C4.91383 2.23613 4.8731 2.15927 4.81292 2.09909C4.75274 2.03891 4.67588 1.99819 4.59229 1.98219C4.5087 1.96619 4.42223 1.97566 4.34408 2.00936C4.26594 2.04307 4.19971 2.09946 4.15397 2.17124C4.10824 2.24301 4.08511 2.32686 4.08758 2.41194C4.09072 2.52034 4.13519 2.62345 4.21188 2.70013C4.28857 2.77682 4.39167 2.82129 4.50008 2.82444Z" fill="#414354"/>
</svg>
