<svg width="54" height="54" viewBox="0 0 54 54" fill="none" xmlns="http://www.w3.org/2000/svg">
<path d="M33.6289 27L52.1836 8.44533C53.0642 7.56628 53.5595 6.37342 53.5606 5.12916C53.5617 3.8849 53.0685 2.69116 52.1895 1.81056C51.3104 0.929959 50.1176 0.434625 48.8733 0.433526C47.629 0.432427 46.4353 0.925654 45.5547 1.8047L27 20.3594L8.44533 1.8047C7.56472 0.9241 6.37037 0.429382 5.12501 0.429382C3.87966 0.429382 2.6853 0.9241 1.8047 1.8047C0.9241 2.6853 0.429382 3.87966 0.429382 5.12501C0.429382 6.37037 0.9241 7.56472 1.8047 8.44533L20.3594 27L1.8047 45.5547C0.9241 46.4353 0.429382 47.6297 0.429382 48.875C0.429382 50.1204 0.9241 51.3147 1.8047 52.1953C2.6853 53.0759 3.87966 53.5706 5.12501 53.5706C6.37037 53.5706 7.56472 53.0759 8.44533 52.1953L27 33.6406L45.5547 52.1953C46.4353 53.0759 47.6297 53.5706 48.875 53.5706C50.1204 53.5706 51.3147 53.0759 52.1953 52.1953C53.0759 51.3147 53.5706 50.1204 53.5706 48.875C53.5706 47.6297 53.0759 46.4353 52.1953 45.5547L33.6289 27Z" fill="#111111"/>
</svg>
