<svg width="21" height="18" viewBox="0 0 21 18" fill="none" xmlns="http://www.w3.org/2000/svg">
<g clip-path="url(#clip0_1_9)">
<path d="M16.625 0.62499H4.375C3.2151 0.62638 2.10311 1.08776 1.28294 1.90793C0.462772 2.72811 0.00138938 3.8401 0 4.99999V10.25C0.00138938 11.4099 0.462772 12.5219 1.28294 13.3421C2.10311 14.1622 3.2151 14.6236 4.375 14.625H9.625V15.5H7C6.76794 15.5 6.54538 15.5922 6.38128 15.7563C6.21719 15.9204 6.125 16.1429 6.125 16.375C6.125 16.6071 6.21719 16.8296 6.38128 16.9937C6.54538 17.1578 6.76794 17.25 7 17.25H14C14.2321 17.25 14.4546 17.1578 14.6187 16.9937C14.7828 16.8296 14.875 16.6071 14.875 16.375C14.875 16.1429 14.7828 15.9204 14.6187 15.7563C14.4546 15.5922 14.2321 15.5 14 15.5H11.375V14.625H16.625C17.7849 14.6236 18.8969 14.1622 19.7171 13.3421C20.5372 12.5219 20.9986 11.4099 21 10.25V4.99999C20.9986 3.8401 20.5372 2.72811 19.7171 1.90793C18.8969 1.08776 17.7849 0.62638 16.625 0.62499ZM19.25 10.25C19.25 10.9462 18.9734 11.6139 18.4812 12.1061C17.9889 12.5984 17.3212 12.875 16.625 12.875H4.375C3.67881 12.875 3.01113 12.5984 2.51884 12.1061C2.02656 11.6139 1.75 10.9462 1.75 10.25V4.99999C1.75 4.3038 2.02656 3.63612 2.51884 3.14384C3.01113 2.65155 3.67881 2.37499 4.375 2.37499H16.625C17.3212 2.37499 17.9889 2.65155 18.4812 3.14384C18.9734 3.63612 19.25 4.3038 19.25 4.99999V10.25Z" fill="#417D60"/>
<rect x="1" y="2" width="19" height="11" rx="3" fill="#417D60"/>
</g>
<defs>
<clipPath id="clip0_1_9">
<rect width="21" height="18" fill="white"/>
</clipPath>
</defs>
</svg>
