<svg width="19" height="24" viewBox="0 0 19 24" fill="none" xmlns="http://www.w3.org/2000/svg">
<path d="M15.9942 2.28607C14.7736 1.19561 13.2787 0.458655 11.6705 0.154503C10.0623 -0.14965 8.40153 -0.00947863 6.86703 0.559931C5.33253 1.12934 3.98235 2.10643 2.9618 3.38604C1.94126 4.66566 1.28898 6.19935 1.07517 7.82207C0.883152 9.24492 1.03672 10.6931 1.52289 12.044C2.00906 13.3949 2.81351 14.6089 3.86817 15.5831C4.52037 16.155 5.04665 16.8562 5.41366 17.6422C5.78066 18.4282 5.98038 19.2818 6.00017 20.1491V20.3101C6.00123 21.2884 6.39034 22.2263 7.08212 22.9181C7.7739 23.6099 8.71185 23.999 9.69017 24.0001H10.3102C11.2885 23.999 12.2264 23.6099 12.9182 22.9181C13.61 22.2263 13.9991 21.2884 14.0002 20.3101V19.7611C14.0151 18.9945 14.1955 18.2403 14.529 17.5499C14.8624 16.8595 15.3411 16.2493 15.9322 15.7611C16.8908 14.9215 17.66 13.8878 18.189 12.7286C18.7179 11.5693 18.9945 10.3108 19.0003 9.03654C19.0062 7.76229 18.7412 6.50134 18.223 5.33723C17.7047 4.17311 16.945 3.13241 15.9942 2.28407V2.28607ZM10.3102 22.0001H9.69017C9.24212 21.9995 8.81257 21.8213 8.49575 21.5045C8.17892 21.1877 8.0007 20.7581 8.00017 20.3101C8.00017 20.3101 7.99317 20.0501 7.99217 20.0001H12.0002V20.3101C11.9996 20.7581 11.8214 21.1877 11.5046 21.5045C11.1878 21.8213 10.7582 21.9995 10.3102 22.0001ZM14.6102 14.2591C13.4716 15.2466 12.6493 16.5478 12.2462 18.0001H11.0002V10.8161C11.5831 10.61 12.0881 10.2288 12.4461 9.72477C12.8041 9.2207 12.9976 8.61833 13.0002 8.00007C13.0002 7.73486 12.8948 7.4805 12.7073 7.29296C12.5197 7.10543 12.2654 7.00007 12.0002 7.00007C11.735 7.00007 11.4806 7.10543 11.2931 7.29296C11.1055 7.4805 11.0002 7.73486 11.0002 8.00007C11.0002 8.26529 10.8948 8.51964 10.7073 8.70718C10.5197 8.89471 10.2654 9.00007 10.0002 9.00007C9.73496 9.00007 9.4806 8.89471 9.29307 8.70718C9.10553 8.51964 9.00017 8.26529 9.00017 8.00007C9.00017 7.73486 8.89482 7.4805 8.70728 7.29296C8.51974 7.10543 8.26539 7.00007 8.00017 7.00007C7.73496 7.00007 7.4806 7.10543 7.29307 7.29296C7.10553 7.4805 7.00017 7.73486 7.00017 8.00007C7.00274 8.61833 7.19626 9.2207 7.55426 9.72477C7.91226 10.2288 8.41726 10.61 9.00017 10.8161V18.0001H7.67817C7.22716 16.5093 6.38129 15.1683 5.23017 14.1191C4.25313 13.2087 3.5569 12.0378 3.22364 10.7446C2.89039 9.45134 2.93402 8.08979 3.34938 6.82057C3.76475 5.55134 4.53451 4.42742 5.56784 3.58143C6.60117 2.73545 7.85493 2.2027 9.18117 2.04607C9.4561 2.01538 9.73253 2.00002 10.0092 2.00007C11.7267 1.99497 13.3848 2.6287 14.6612 3.77807C15.4009 4.43767 15.9919 5.24696 16.3951 6.1523C16.7983 7.05763 17.0045 8.03834 17 9.02939C16.9954 10.0204 16.7803 10.9992 16.3688 11.9008C15.9573 12.8024 15.3589 13.6063 14.6132 14.2591H14.6102Z" fill="#374957"/>
</svg>
