<svg width="48" height="36" viewBox="0 0 48 36" fill="none" xmlns="http://www.w3.org/2000/svg">
<path d="M24.8948 21.1043L27.7108 16.7523C27.8035 16.5918 27.8523 16.4097 27.8523 16.2243C27.8523 16.0389 27.8035 15.8568 27.7108 15.6963C27.6177 15.5383 27.4799 15.4114 27.3147 15.3317C27.1496 15.2519 26.9645 15.2229 26.7828 15.2483C21.1828 15.6963 16.8628 16.1123 16.8628 16.1123C16.7165 16.1209 16.5742 16.1628 16.4466 16.2349C16.319 16.307 16.2096 16.4074 16.1268 16.5283C16.0639 16.6636 16.0312 16.8111 16.0312 16.9603C16.0312 17.1096 16.0639 17.257 16.1268 17.3923L19.3268 26.8323C19.3773 27.0117 19.4806 27.1717 19.6233 27.2916C19.766 27.4115 19.9414 27.4856 20.1268 27.5043C20.2876 27.5053 20.4458 27.4646 20.586 27.386C20.7263 27.3075 20.8437 27.1939 20.9268 27.0563L23.7428 22.7363L30.3988 27.1203C30.5645 27.2169 30.7512 27.2718 30.9428 27.2803C31.1078 27.2807 31.2703 27.24 31.4156 27.1617C31.5609 27.0835 31.6844 26.9703 31.7748 26.8323C31.9097 26.6145 31.955 26.3529 31.9013 26.1024C31.8476 25.8518 31.6991 25.6318 31.4868 25.4883L24.8948 21.1043ZM20.4788 24.3043L18.3028 17.9043L24.9908 17.3283L20.4788 24.3043Z" fill="#B4B4B4"/>
<path d="M42.2074 0.0476265H5.79142C4.42503 0.0476265 3.1146 0.590425 2.14841 1.55661C1.18222 2.5228 0.639423 3.83323 0.639423 5.19963V30.7996C0.639423 32.166 1.18222 33.4765 2.14841 34.4426C3.1146 35.4088 4.42503 35.9516 5.79142 35.9516H42.2074C43.5738 35.9516 44.8843 35.4088 45.8504 34.4426C46.8166 33.4765 47.3594 32.166 47.3594 30.7996V5.19963C47.3594 3.83323 46.8166 2.5228 45.8504 1.55661C44.8843 0.590425 43.5738 0.0476265 42.2074 0.0476265ZM5.79142 1.99963H42.2074C43.0561 1.99963 43.87 2.33677 44.4702 2.93688C45.0703 3.537 45.4074 4.35093 45.4074 5.19963V7.50363H2.59142V5.19963C2.59142 4.35093 2.92856 3.537 3.52868 2.93688C4.1288 2.33677 4.94273 1.99963 5.79142 1.99963V1.99963ZM42.2074 33.9996H5.79142C4.94273 33.9996 4.1288 33.6625 3.52868 33.0624C2.92856 32.4622 2.59142 31.6483 2.59142 30.7996V9.45563H45.4074V30.7996C45.4074 31.2199 45.3247 31.636 45.1638 32.0242C45.003 32.4125 44.7673 32.7652 44.4702 33.0624C44.173 33.3595 43.8203 33.5952 43.432 33.756C43.0438 33.9169 42.6277 33.9996 42.2074 33.9996V33.9996Z" fill="#B4B4B4"/>
<path d="M41.3985 0.222355H6.60179C5.29616 0.222355 4.044 0.741017 3.12077 1.66424C2.19755 2.58747 1.67889 3.83963 1.67889 5.14526V29.6069C1.67889 30.9126 2.19755 32.1647 3.12077 33.0879C4.044 34.0112 5.29616 34.5298 6.60179 34.5298H41.3985C42.7041 34.5298 43.9563 34.0112 44.8795 33.0879C45.8027 32.1647 46.3214 30.9126 46.3214 29.6069V5.14526C46.3214 3.83963 45.8027 2.58747 44.8795 1.66424C43.9563 0.741017 42.7041 0.222355 41.3985 0.222355ZM6.60179 2.08756H41.3985C42.2095 2.08756 42.9872 2.40971 43.5606 2.98314C44.1341 3.55657 44.4562 4.33431 44.4562 5.14526V7.34681H3.54409V5.14526C3.54409 4.33431 3.86624 3.55657 4.43967 2.98314C5.0131 2.40971 5.79084 2.08756 6.60179 2.08756ZM41.3985 32.6646H6.60179C5.79084 32.6646 5.0131 32.3425 4.43967 31.769C3.86624 31.1956 3.54409 30.4179 3.54409 29.6069V9.21201H44.4562V29.6069C44.4562 30.0085 44.3771 30.4061 44.2235 30.7771C44.0698 31.148 43.8446 31.4851 43.5606 31.769C43.2767 32.053 42.9396 32.2782 42.5686 32.4319C42.1977 32.5855 41.8 32.6646 41.3985 32.6646Z" fill="#B4B4B4"/>
<path d="M41.3985 1.64483H6.60179C5.29616 1.64483 4.044 2.16349 3.12077 3.08672C2.19755 4.00994 1.67889 5.2621 1.67889 6.56774V31.0294C1.67889 32.335 2.19755 33.5872 3.12077 34.5104C4.044 35.4336 5.29616 35.9523 6.60179 35.9523H41.3985C42.7041 35.9523 43.9563 35.4336 44.8795 34.5104C45.8027 33.5872 46.3214 32.335 46.3214 31.0294V6.56774C46.3214 5.2621 45.8027 4.00994 44.8795 3.08672C43.9563 2.16349 42.7041 1.64483 41.3985 1.64483ZM6.60179 3.51003H41.3985C42.2095 3.51003 42.9872 3.83218 43.5606 4.40561C44.1341 4.97905 44.4562 5.75679 44.4562 6.56774V8.76929H3.54409V6.56774C3.54409 5.75679 3.86624 4.97905 4.43967 4.40561C5.0131 3.83218 5.79084 3.51003 6.60179 3.51003ZM41.3985 34.0871H6.60179C5.79084 34.0871 5.0131 33.7649 4.43967 33.1915C3.86624 32.6181 3.54409 31.8404 3.54409 31.0294V10.6345H44.4562V31.0294C44.4562 31.4309 44.3771 31.8286 44.2235 32.1995C44.0698 32.5705 43.8446 32.9076 43.5606 33.1915C43.2767 33.4755 42.9396 33.7007 42.5686 33.8543C42.1977 34.008 41.8 34.0871 41.3985 34.0871Z" fill="#B4B4B4"/>
<path d="M5.79223 6.03191C6.01183 6.05129 6.23214 6.00351 6.42397 5.89489C6.6158 5.78626 6.77011 5.62193 6.86646 5.42365C6.96281 5.22537 6.99666 5.0025 6.96351 4.78456C6.93037 4.56661 6.8318 4.36387 6.68087 4.2032C6.52993 4.04252 6.33374 3.93149 6.11829 3.88481C5.90284 3.83812 5.67829 3.85798 5.47439 3.94176C5.27048 4.02555 5.09683 4.16929 4.97644 4.35397C4.85605 4.53865 4.7946 4.75554 4.80024 4.97591C4.80706 5.24303 4.91194 5.4983 5.09489 5.69305C5.27784 5.88781 5.52606 6.00842 5.79223 6.03191Z" fill="#B4B4B4"/>
<path d="M8.51027 6.03247C8.76282 5.98868 8.9918 5.85712 9.15684 5.661C9.32187 5.46488 9.41237 5.21679 9.41237 4.96047C9.41237 4.70415 9.32187 4.45606 9.15684 4.25994C8.9918 4.06382 8.76282 3.93227 8.51027 3.88847C8.25772 3.93227 8.02874 4.06382 7.8637 4.25994C7.69867 4.45606 7.60817 4.70415 7.60817 4.96047C7.60817 5.21679 7.69867 5.46488 7.8637 5.661C8.02874 5.85712 8.25772 5.98868 8.51027 6.03247V6.03247Z" fill="#B4B4B4"/>
<path d="M11.2001 6.03131C11.4179 6.03763 11.6325 5.97842 11.8163 5.86134C12 5.74426 12.1444 5.57472 12.2307 5.37466C12.317 5.1746 12.3412 4.95324 12.3002 4.73925C12.2593 4.52526 12.155 4.3285 12.001 4.17444C11.8469 4.02038 11.6501 3.91612 11.4361 3.87517C11.2222 3.83421 11.0008 3.85845 10.8007 3.94473C10.6007 4.03102 10.4311 4.17538 10.3141 4.35913C10.197 4.54287 10.1378 4.75753 10.1441 4.97531C10.1521 5.25284 10.266 5.51678 10.4623 5.7131C10.6586 5.90942 10.9226 6.02326 11.2001 6.03131V6.03131Z" fill="#B4B4B4"/>
</svg>
