<svg width="13" height="19" viewBox="0 0 13 19" fill="none" xmlns="http://www.w3.org/2000/svg">
<g clip-path="url(#clip0_1_11)">
<path d="M8.70833 -7.62939e-06H3.95833C2.9089 0.00124942 1.90281 0.418691 1.16076 1.16075C0.418698 1.90281 0.001257 2.9089 0 3.95833V15.0417C0.001257 16.0911 0.418698 17.0972 1.16076 17.8392C1.90281 18.5813 2.9089 18.9987 3.95833 19H8.70833C9.75776 18.9987 10.7639 18.5813 11.506 17.8392C12.248 17.0972 12.6655 16.0911 12.6667 15.0417V3.95833C12.6655 2.9089 12.248 1.90281 11.506 1.16075C10.7639 0.418691 9.75776 0.00124942 8.70833 -7.62939e-06ZM3.95833 1.58333H8.70833C9.33822 1.58333 9.94235 1.83355 10.3878 2.27895C10.8332 2.72435 11.0834 3.32844 11.0834 3.95833V12.6667H1.58333V3.95833C1.58333 3.32844 1.83355 2.72435 2.27895 2.27895C2.72435 1.83355 3.32844 1.58333 3.95833 1.58333ZM8.70833 17.4167H3.95833C3.32844 17.4167 2.72435 17.1664 2.27895 16.721C1.83355 16.2756 1.58333 15.6715 1.58333 15.0417V14.25H11.0834V15.0417C11.0834 15.6715 10.8332 16.2756 10.3878 16.721C9.94235 17.1664 9.33822 17.4167 8.70833 17.4167Z" fill="#417D60"/>
<path d="M1 4C1 2.34315 2.34315 1 4 1H9C10.6569 1 12 2.34315 12 4V13H1V4Z" fill="#417D60"/>
<circle cx="6.5" cy="15.5" r="0.5" fill="#417D60"/>
</g>
<defs>
<clipPath id="clip0_1_11">
<rect width="13" height="19" fill="white"/>
</clipPath>
</defs>
</svg>
