<svg width="18" height="17" viewBox="0 0 18 17" fill="none" xmlns="http://www.w3.org/2000/svg">
<path d="M17.2423 4.328C17.2186 3.78175 16.7753 3.35425 16.229 3.35425C15.6828 3.35425 15.2394 3.78175 15.2157 4.328L14.8119 12.8542H13.4582V6.95633C13.4582 6.28341 12.904 5.72925 12.2311 5.72925H2.01859C1.34567 5.72925 0.791504 6.28341 0.791504 6.95633V15.5855C0.791504 16.2584 1.34567 16.8126 2.01859 16.8126H12.2311C12.904 16.8126 13.4582 16.2584 13.4582 15.5855V15.2292H14.7011C14.6773 16.0922 15.374 16.8126 16.229 16.8126C17.084 16.8126 17.7886 16.0842 17.7569 15.2134L17.2423 4.328ZM12.6665 15.5855C12.6665 15.823 12.4686 16.0209 12.2311 16.0209H2.01859C1.78109 16.0209 1.58317 15.823 1.58317 15.5855V6.95633C1.58317 6.71883 1.78109 6.52091 2.01859 6.52091H12.2311C12.4686 6.52091 12.6665 6.71883 12.6665 6.95633V15.5855ZM14.7407 14.4376H13.4582V13.6459H14.7723L14.7407 14.4376ZM15.9994 4.35966C16.0073 4.24091 16.1103 4.14591 16.229 4.14591C16.3478 4.14591 16.4507 4.24091 16.4586 4.35966L16.5773 6.91675H15.8807L15.9994 4.35966ZM16.7594 15.7913C16.4823 16.0842 15.9757 16.0842 15.6986 15.7913C15.5561 15.6488 15.4848 15.4509 15.4928 15.253L15.8411 7.70842H16.6169L16.9653 15.253C16.9732 15.4509 16.9019 15.6488 16.7594 15.7913Z" fill="#414354"/>
<path d="M9.49984 15.2292C9.71845 15.2292 9.89567 15.0519 9.89567 14.8333C9.89567 14.6147 9.71845 14.4375 9.49984 14.4375C9.28122 14.4375 9.104 14.6147 9.104 14.8333C9.104 15.0519 9.28122 15.2292 9.49984 15.2292Z" fill="#414354"/>
<path d="M11.0833 15.2292C11.3019 15.2292 11.4792 15.0519 11.4792 14.8333C11.4792 14.6147 11.3019 14.4375 11.0833 14.4375C10.8647 14.4375 10.6875 14.6147 10.6875 14.8333C10.6875 15.0519 10.8647 15.2292 11.0833 15.2292Z" fill="#414354"/>
<path d="M6.33333 15.2292C6.55195 15.2292 6.72917 15.0519 6.72917 14.8333C6.72917 14.6147 6.55195 14.4375 6.33333 14.4375C6.11472 14.4375 5.9375 14.6147 5.9375 14.8333C5.9375 15.0519 6.11472 15.2292 6.33333 15.2292Z" fill="#414354"/>
<path d="M7.91683 15.2292C8.13544 15.2292 8.31266 15.0519 8.31266 14.8333C8.31266 14.6147 8.13544 14.4375 7.91683 14.4375C7.69822 14.4375 7.521 14.6147 7.521 14.8333C7.521 15.0519 7.69822 15.2292 7.91683 15.2292Z" fill="#414354"/>
<path d="M3.16683 15.2292C3.38544 15.2292 3.56266 15.0519 3.56266 14.8333C3.56266 14.6147 3.38544 14.4375 3.16683 14.4375C2.94822 14.4375 2.771 14.6147 2.771 14.8333C2.771 15.0519 2.94822 15.2292 3.16683 15.2292Z" fill="#414354"/>
<path d="M4.74984 15.2292C4.96845 15.2292 5.14567 15.0519 5.14567 14.8333C5.14567 14.6147 4.96845 14.4375 4.74984 14.4375C4.53122 14.4375 4.354 14.6147 4.354 14.8333C4.354 15.0519 4.53122 15.2292 4.74984 15.2292Z" fill="#414354"/>
<path d="M9.5 7.70833C9.5 7.49142 9.32108 7.3125 9.10417 7.3125H5.14583C4.92892 7.3125 4.75 7.49142 4.75 7.70833C4.75 7.92525 4.92892 8.10417 5.14583 8.10417H9.10417C9.32108 8.10417 9.5 7.92525 9.5 7.70833Z" fill="#414354"/>
<path d="M7.91683 9.29159C7.91683 9.07309 7.7395 8.89575 7.521 8.89575H6.72933C6.51083 8.89575 6.3335 9.07309 6.3335 9.29159C6.3335 9.51009 6.51083 9.68742 6.72933 9.68742H7.521C7.7395 9.68742 7.91683 9.51009 7.91683 9.29159Z" fill="#414354"/>
<path d="M5.9375 4.54175C5.9375 4.76025 6.11483 4.93758 6.33333 4.93758C6.55183 4.93758 6.72917 4.76025 6.72917 4.54175C6.72917 4.32404 6.9065 4.14591 7.125 4.14591C7.3435 4.14591 7.52083 4.32404 7.52083 4.54175C7.52083 4.76025 7.69817 4.93758 7.91667 4.93758C8.13517 4.93758 8.3125 4.76025 8.3125 4.54175C8.3125 3.88704 7.77971 3.35425 7.125 3.35425C6.47029 3.35425 5.9375 3.88704 5.9375 4.54175Z" fill="#414354"/>
<path d="M9.104 4.54159C9.104 4.76009 9.28134 4.93742 9.49984 4.93742C9.71834 4.93742 9.89567 4.76009 9.89567 4.54159C9.89567 3.01367 8.65275 1.77075 7.12484 1.77075C5.59692 1.77075 4.354 3.01367 4.354 4.54159C4.354 4.76009 4.53134 4.93742 4.74984 4.93742C4.96834 4.93742 5.14567 4.76009 5.14567 4.54159C5.14567 3.44988 6.03392 2.56242 7.12484 2.56242C8.21575 2.56242 9.104 3.44988 9.104 4.54159Z" fill="#414354"/>
<path d="M3.16683 4.9375C3.38533 4.9375 3.56266 4.76017 3.56266 4.54167C3.56266 2.57754 5.16104 0.979167 7.12516 0.979167C9.08929 0.979167 10.6877 2.57754 10.6877 4.54167C10.6877 4.76017 10.865 4.9375 11.0835 4.9375C11.302 4.9375 11.4793 4.76017 11.4793 4.54167C11.4793 2.14133 9.52629 0.1875 7.12516 0.1875C4.72404 0.1875 2.771 2.14133 2.771 4.54167C2.771 4.76017 2.94833 4.9375 3.16683 4.9375Z" fill="#414354"/>
</svg>
