<svg width="899" height="349" viewBox="0 0 899 349" fill="none" xmlns="http://www.w3.org/2000/svg">
<rect x="0.622917" y="0.622917" width="897" height="347.588" rx="19.3104" fill="white" stroke="#EDF2F7" stroke-width="1.24583"/>
<g filter="url(#filter0_d_238_8506)">
<path fill-rule="evenodd" clip-rule="evenodd" d="M257.888 97.175C253.76 97.175 250.413 100.522 250.413 104.65V124.583C250.413 128.712 253.76 132.058 257.888 132.058H279.353L287.582 140.269C288.554 141.24 290.129 141.24 291.102 140.269L299.331 132.058H322.03C326.159 132.058 329.505 128.712 329.505 124.583V104.65C329.505 100.522 326.159 97.175 322.03 97.175H257.888Z" fill="#1A202C"/>
</g>
<path d="M269.613 121.892V120.143H271.176V121.892H269.613ZM269.613 109.909V108.153H271.176V109.909H269.613ZM270.473 120.628C269.725 120.628 269.058 120.494 268.47 120.225C267.882 119.956 267.398 119.574 267.019 119.081C266.646 118.583 266.401 117.995 266.287 117.317L267.834 117.07C267.984 117.708 268.303 118.216 268.791 118.595C269.279 118.969 269.865 119.156 270.548 119.156C271.225 119.156 271.776 118.994 272.2 118.67C272.628 118.346 272.842 117.932 272.842 117.429C272.842 117.07 272.733 116.779 272.514 116.555C272.299 116.33 271.948 116.141 271.46 115.986L268.933 115.209C267.438 114.746 266.691 113.849 266.691 112.518C266.691 111.89 266.84 111.344 267.139 110.881C267.443 110.418 267.869 110.059 268.417 109.805C268.965 109.55 269.606 109.423 270.338 109.423C271.041 109.433 271.664 109.563 272.207 109.812C272.755 110.061 273.209 110.42 273.568 110.889C273.931 111.357 274.183 111.92 274.322 112.578L272.73 112.862C272.661 112.478 272.514 112.139 272.289 111.845C272.07 111.551 271.791 111.322 271.452 111.158C271.118 110.993 270.742 110.908 270.323 110.903C269.93 110.893 269.576 110.956 269.262 111.09C268.953 111.22 268.706 111.404 268.522 111.643C268.342 111.878 268.253 112.144 268.253 112.443C268.253 112.772 268.38 113.051 268.634 113.28C268.888 113.51 269.289 113.707 269.837 113.871L271.818 114.447C272.725 114.716 273.381 115.077 273.784 115.53C274.188 115.984 274.39 116.587 274.39 117.339C274.39 117.997 274.225 118.573 273.896 119.066C273.573 119.555 273.117 119.938 272.528 120.217C271.94 120.491 271.255 120.628 270.473 120.628ZM279.676 120.628C279.122 120.628 278.607 120.516 278.128 120.292C277.655 120.063 277.249 119.749 276.91 119.35C276.571 118.947 276.329 118.483 276.185 117.96L277.687 117.556C277.772 117.875 277.916 118.152 278.121 118.386C278.33 118.62 278.574 118.802 278.853 118.932C279.132 119.056 279.421 119.118 279.72 119.118C280.114 119.118 280.47 119.024 280.789 118.834C281.113 118.645 281.367 118.391 281.552 118.072C281.741 117.753 281.836 117.402 281.836 117.018C281.836 116.624 281.739 116.268 281.544 115.949C281.355 115.63 281.098 115.378 280.774 115.194C280.456 115.005 280.104 114.91 279.72 114.91C279.282 114.91 278.911 114.997 278.607 115.172C278.303 115.346 278.066 115.548 277.897 115.777L276.536 115.299L276.865 109.64H282.673V111.113H277.665L278.3 110.522L278.039 114.761L277.732 114.364C278.016 114.08 278.355 113.864 278.749 113.714C279.142 113.565 279.534 113.49 279.922 113.49C280.59 113.49 281.186 113.644 281.709 113.953C282.237 114.262 282.653 114.683 282.957 115.217C283.261 115.745 283.413 116.345 283.413 117.018C283.413 117.686 283.241 118.294 282.897 118.842C282.553 119.385 282.098 119.819 281.529 120.143C280.961 120.466 280.343 120.628 279.676 120.628ZM285.549 122.191L285.646 121.496C285.86 121.51 286.027 121.471 286.147 121.376C286.266 121.281 286.346 121.149 286.386 120.98C286.426 120.81 286.433 120.618 286.408 120.404H285.549V118.603H287.201V120.554C287.201 121.142 287.059 121.585 286.774 121.884C286.495 122.183 286.087 122.285 285.549 122.191ZM290.613 120.404V111.359L288.587 112.593V110.851L290.613 109.64H292.205V120.404H290.613ZM299.295 120.628C298.562 120.628 297.914 120.469 297.351 120.15C296.788 119.826 296.344 119.383 296.021 118.819C295.702 118.256 295.542 117.609 295.542 116.876V113.168C295.542 112.436 295.702 111.788 296.021 111.225C296.344 110.662 296.788 110.221 297.351 109.902C297.914 109.578 298.562 109.416 299.295 109.416C300.027 109.416 300.675 109.578 301.238 109.902C301.801 110.221 302.242 110.662 302.561 111.225C302.885 111.788 303.047 112.436 303.047 113.168V116.876C303.047 117.609 302.885 118.256 302.561 118.819C302.242 119.383 301.801 119.826 301.238 120.15C300.675 120.469 300.027 120.628 299.295 120.628ZM299.295 119.133C299.693 119.133 300.055 119.039 300.378 118.849C300.707 118.655 300.969 118.396 301.163 118.072C301.358 117.743 301.455 117.377 301.455 116.973V113.056C301.455 112.658 301.358 112.296 301.163 111.972C300.969 111.643 300.707 111.384 300.378 111.195C300.055 111.001 299.693 110.903 299.295 110.903C298.896 110.903 298.532 111.001 298.203 111.195C297.879 111.384 297.62 111.643 297.426 111.972C297.231 112.296 297.134 112.658 297.134 113.056V116.973C297.134 117.377 297.231 117.743 297.426 118.072C297.62 118.396 297.879 118.655 298.203 118.849C298.532 119.039 298.896 119.133 299.295 119.133ZM309.385 120.628C308.652 120.628 308.004 120.469 307.441 120.15C306.878 119.826 306.435 119.383 306.111 118.819C305.792 118.256 305.632 117.609 305.632 116.876V113.168C305.632 112.436 305.792 111.788 306.111 111.225C306.435 110.662 306.878 110.221 307.441 109.902C308.004 109.578 308.652 109.416 309.385 109.416C310.117 109.416 310.765 109.578 311.328 109.902C311.891 110.221 312.332 110.662 312.651 111.225C312.975 111.788 313.137 112.436 313.137 113.168V116.876C313.137 117.609 312.975 118.256 312.651 118.819C312.332 119.383 311.891 119.826 311.328 120.15C310.765 120.469 310.117 120.628 309.385 120.628ZM309.385 119.133C309.784 119.133 310.145 119.039 310.469 118.849C310.798 118.655 311.059 118.396 311.254 118.072C311.448 117.743 311.545 117.377 311.545 116.973V113.056C311.545 112.658 311.448 112.296 311.254 111.972C311.059 111.643 310.798 111.384 310.469 111.195C310.145 111.001 309.784 110.903 309.385 110.903C308.986 110.903 308.622 111.001 308.293 111.195C307.97 111.384 307.71 111.643 307.516 111.972C307.322 112.296 307.225 112.658 307.225 113.056V116.973C307.225 117.377 307.322 117.743 307.516 118.072C307.71 118.396 307.97 118.655 308.293 118.849C308.622 119.039 308.986 119.133 309.385 119.133Z" fill="white"/>
<rect x="728.529" y="29.8999" width="139.817" height="41.9333" rx="9.96667" fill="#FAFAFA"/>
<path d="M747.631 56.8665V47.575H744.051V46.1025H752.774V47.575H749.193V56.8665H747.631ZM760.134 56.8665V52.8972C760.134 52.5833 760.107 52.2619 760.052 51.933C760.002 51.5991 759.903 51.2901 759.753 51.0061C759.609 50.722 759.402 50.4928 759.133 50.3184C758.869 50.1439 758.522 50.0567 758.094 50.0567C757.815 50.0567 757.551 50.1041 757.301 50.1988C757.052 50.2885 756.833 50.4355 756.644 50.6398C756.459 50.8441 756.312 51.1132 756.203 51.4471C756.098 51.781 756.046 52.1871 756.046 52.6655L755.074 52.2992C755.074 51.5667 755.211 50.9213 755.485 50.3632C755.759 49.8001 756.153 49.3616 756.666 49.0476C757.179 48.7337 757.8 48.5767 758.527 48.5767C759.085 48.5767 759.554 48.6664 759.933 48.8458C760.311 49.0252 760.618 49.2619 760.852 49.5559C761.091 49.8449 761.273 50.1614 761.398 50.5052C761.522 50.8491 761.607 51.1855 761.652 51.5144C761.697 51.8433 761.719 52.1323 761.719 52.3815V56.8665H760.134ZM754.461 56.8665V46.1025H755.859V51.9105H756.046V56.8665H754.461ZM764.314 47.4704V45.953H765.876V47.4704H764.314ZM764.314 56.8665V48.7935H765.876V56.8665H764.314ZM771.707 57.0832C770.725 57.0832 769.925 56.8665 769.307 56.4329C768.689 55.9994 768.31 55.3889 768.171 54.6015L769.77 54.3549C769.87 54.7735 770.099 55.1048 770.458 55.349C770.822 55.5882 771.273 55.7078 771.811 55.7078C772.3 55.7078 772.681 55.6082 772.955 55.4088C773.234 55.2095 773.373 54.9354 773.373 54.5866C773.373 54.3823 773.324 54.2178 773.224 54.0932C773.129 53.9637 772.927 53.8416 772.618 53.727C772.31 53.6123 771.839 53.4703 771.206 53.3009C770.513 53.1215 769.962 52.9296 769.554 52.7253C769.15 52.516 768.861 52.2743 768.687 52.0002C768.517 51.7212 768.432 51.3848 768.432 50.9911C768.432 50.5027 768.562 50.0767 768.821 49.7129C769.08 49.3491 769.444 49.0675 769.913 48.8682C770.386 48.6689 770.939 48.5692 771.572 48.5692C772.19 48.5692 772.741 48.6664 773.224 48.8607C773.707 49.0551 774.099 49.3317 774.398 49.6905C774.697 50.0443 774.876 50.4604 774.936 50.9388L773.336 51.2303C773.281 50.8416 773.099 50.5351 772.79 50.3109C772.481 50.0866 772.08 49.9645 771.587 49.9446C771.114 49.9247 770.73 50.0044 770.436 50.1838C770.142 50.3582 769.995 50.5999 769.995 50.9089C769.995 51.0883 770.05 51.2403 770.159 51.3649C770.274 51.4894 770.493 51.609 770.817 51.7237C771.141 51.8383 771.619 51.9753 772.252 52.1348C772.93 52.3092 773.468 52.5035 773.867 52.7178C774.265 52.9271 774.55 53.1788 774.719 53.4728C774.893 53.7618 774.981 54.1132 774.981 54.5268C774.981 55.3241 774.689 55.9495 774.106 56.403C773.528 56.8565 772.728 57.0832 771.707 57.0832ZM790.297 56.8665L790.304 51.8358C790.304 51.2527 790.155 50.7992 789.856 50.4753C789.557 50.1464 789.163 49.982 788.675 49.982C788.376 49.982 788.102 50.0517 787.852 50.1913C787.608 50.3258 787.409 50.5301 787.254 50.8042C787.105 51.0733 787.03 51.4122 787.03 51.8208L786.275 51.4396C786.265 50.8715 786.385 50.3732 786.634 49.9446C786.888 49.516 787.232 49.1846 787.666 48.9504C788.099 48.7112 788.585 48.5916 789.123 48.5916C789.995 48.5916 790.671 48.8533 791.149 49.3765C791.627 49.8998 791.867 50.5949 791.867 51.462L791.859 56.8665H790.297ZM780.617 56.8665V48.7935H782.007V51.1257H782.186V56.8665H780.617ZM785.46 56.8665L785.468 51.8657C785.468 51.2776 785.318 50.8167 785.019 50.4828C784.725 50.1489 784.329 49.982 783.831 49.982C783.338 49.982 782.939 50.1514 782.635 50.4903C782.336 50.8291 782.186 51.2727 782.186 51.8208L781.439 51.3424C781.439 50.8142 781.566 50.3433 781.82 49.9297C782.074 49.516 782.418 49.1896 782.852 48.9504C783.285 48.7112 783.776 48.5916 784.324 48.5916C784.897 48.5916 785.386 48.7137 785.789 48.9579C786.193 49.1971 786.499 49.5335 786.709 49.967C786.923 50.4006 787.03 50.9039 787.03 51.477L787.023 56.8665H785.46ZM797.709 57.0907C796.902 57.0907 796.202 56.9088 795.609 56.545C795.016 56.1812 794.558 55.6804 794.234 55.0426C793.915 54.3997 793.755 53.6597 793.755 52.8225C793.755 51.9803 793.92 51.2403 794.249 50.6024C794.577 49.9596 795.038 49.4612 795.631 49.1074C796.224 48.7486 796.917 48.5692 797.709 48.5692C798.517 48.5692 799.217 48.7511 799.81 49.1149C800.403 49.4787 800.861 49.9795 801.185 50.6174C801.509 51.2552 801.671 51.9903 801.671 52.8225C801.671 53.6647 801.507 54.4072 801.178 55.05C800.854 55.6879 800.395 56.1887 799.802 56.5525C799.209 56.9113 798.512 57.0907 797.709 57.0907ZM797.709 55.6181C798.482 55.6181 799.057 55.359 799.436 54.8407C799.82 54.3175 800.012 53.6447 800.012 52.8225C800.012 51.9803 799.817 51.3075 799.429 50.8042C799.045 50.2959 798.472 50.0418 797.709 50.0418C797.186 50.0418 796.755 50.1614 796.416 50.4006C796.077 50.6348 795.826 50.9612 795.661 51.3798C795.497 51.7934 795.415 52.2743 795.415 52.8225C795.415 53.6696 795.609 54.3474 795.998 54.8557C796.386 55.364 796.957 55.6181 797.709 55.6181ZM809.478 56.8665V52.8972C809.478 52.5833 809.451 52.2619 809.396 51.933C809.346 51.5991 809.247 51.2901 809.097 51.0061C808.952 50.722 808.746 50.4928 808.477 50.3184C808.212 50.1439 807.866 50.0567 807.438 50.0567C807.158 50.0567 806.894 50.1041 806.645 50.1988C806.396 50.2885 806.177 50.4355 805.987 50.6398C805.803 50.8441 805.656 51.1132 805.546 51.4471C805.442 51.781 805.389 52.1871 805.389 52.6655L804.418 52.2992C804.418 51.5667 804.555 50.9213 804.829 50.3632C805.103 49.8001 805.497 49.3616 806.01 49.0476C806.523 48.7337 807.144 48.5767 807.871 48.5767C808.429 48.5767 808.898 48.6664 809.276 48.8458C809.655 49.0252 809.962 49.2619 810.196 49.5559C810.435 49.8449 810.617 50.1614 810.742 50.5052C810.866 50.8491 810.951 51.1855 810.996 51.5144C811.041 51.8433 811.063 52.1323 811.063 52.3815V56.8665H809.478ZM803.805 56.8665V48.7935H805.203V51.1257H805.389V56.8665H803.805ZM818.128 56.8665C817.62 56.9661 817.121 57.0085 816.633 56.9935C816.144 56.9786 815.708 56.8839 815.325 56.7095C814.941 56.5351 814.652 56.261 814.458 55.8872C814.283 55.5533 814.188 55.2145 814.174 54.8706C814.164 54.5218 814.159 54.1281 814.159 53.6896V46.551H815.728V53.6148C815.728 53.9387 815.731 54.2203 815.736 54.4595C815.746 54.6987 815.798 54.9005 815.893 55.065C816.072 55.3739 816.356 55.5509 816.745 55.5957C817.139 55.6356 817.6 55.6181 818.128 55.5434V56.8665ZM812.611 50.0493V48.7935H818.128V50.0493H812.611ZM825.994 56.8665V52.8972C825.994 52.5833 825.967 52.2619 825.912 51.933C825.862 51.5991 825.763 51.2901 825.613 51.0061C825.469 50.722 825.262 50.4928 824.993 50.3184C824.729 50.1439 824.382 50.0567 823.954 50.0567C823.675 50.0567 823.41 50.1041 823.161 50.1988C822.912 50.2885 822.693 50.4355 822.503 50.6398C822.319 50.8441 822.172 51.1132 822.062 51.4471C821.958 51.781 821.905 52.1871 821.905 52.6655L820.934 52.2992C820.934 51.5667 821.071 50.9213 821.345 50.3632C821.619 49.8001 822.013 49.3616 822.526 49.0476C823.039 48.7337 823.66 48.5767 824.387 48.5767C824.945 48.5767 825.414 48.6664 825.792 48.8458C826.171 49.0252 826.478 49.2619 826.712 49.5559C826.951 49.8449 827.133 50.1614 827.258 50.5052C827.382 50.8491 827.467 51.1855 827.512 51.5144C827.557 51.8433 827.579 52.1323 827.579 52.3815V56.8665H825.994ZM820.321 56.8665V46.1025H821.719V51.9105H821.905V56.8665H820.321Z" fill="#1A202C"/>
<path d="M838.446 48.375L843.429 53.3583L848.412 48.375" stroke="#1A202C" stroke-width="1.86875" stroke-linecap="round" stroke-linejoin="round"/>
<path d="M37.5693 59.4655C36.3733 59.4655 35.2931 59.2562 34.3288 58.8376C33.372 58.4116 32.5834 57.8061 31.963 57.0212C31.3501 56.2289 30.9614 55.287 30.7969 54.1957L33.9813 53.7247C34.2055 54.6516 34.669 55.3655 35.3716 55.8663C36.0743 56.3671 36.8741 56.6176 37.7711 56.6176C38.2719 56.6176 38.7578 56.5391 39.2287 56.3821C39.6996 56.2251 40.0846 55.9934 40.3836 55.6869C40.6901 55.3804 40.8433 55.003 40.8433 54.5545C40.8433 54.39 40.8171 54.233 40.7648 54.0835C40.72 53.9266 40.6415 53.7808 40.5294 53.6462C40.4172 53.5117 40.2565 53.3846 40.0472 53.265C39.8454 53.1454 39.5875 53.037 39.2736 52.9399L35.0801 51.7065C34.7661 51.6168 34.3999 51.4897 33.9813 51.3253C33.5701 51.1608 33.1702 50.9253 32.7815 50.6189C32.3928 50.3124 32.0677 49.9087 31.806 49.4079C31.5519 48.8996 31.4248 48.2605 31.4248 47.4906C31.4248 46.4067 31.6976 45.506 32.2433 44.7884C32.789 44.0708 33.5178 43.5363 34.4298 43.185C35.3417 42.8337 36.3508 42.6617 37.4571 42.6692C38.5709 42.6842 39.5651 42.8748 40.4397 43.241C41.3142 43.6073 42.0468 44.1418 42.6373 44.8444C43.2278 45.5396 43.6539 46.3917 43.9155 47.4009L40.6191 47.9615C40.4995 47.4382 40.2789 46.9972 39.9575 46.6384C39.6361 46.2796 39.2511 46.0068 38.8026 45.8199C38.3616 45.633 37.8982 45.5321 37.4123 45.5172C36.9339 45.5022 36.4816 45.5695 36.0556 45.719C35.637 45.861 35.2931 46.0703 35.024 46.3469C34.7624 46.6235 34.6316 46.9524 34.6316 47.3336C34.6316 47.6849 34.74 47.9727 34.9567 48.197C35.1735 48.4137 35.4464 48.5894 35.7753 48.724C36.1042 48.8585 36.4405 48.9706 36.7844 49.0603L39.5875 49.8228C40.0061 49.9349 40.4696 50.0844 40.9779 50.2713C41.4862 50.4507 41.972 50.7048 42.4355 51.0337C42.9064 51.3552 43.2914 51.7812 43.5904 52.312C43.8968 52.8427 44.0501 53.5154 44.0501 54.3302C44.0501 55.1973 43.8669 55.956 43.5007 56.6063C43.1419 57.2492 42.656 57.7837 42.043 58.2097C41.4301 58.6283 40.7349 58.9423 39.9575 59.1516C39.1876 59.3609 38.3915 59.4655 37.5693 59.4655ZM54.0294 59.1292C53.1922 59.2861 52.37 59.3534 51.5627 59.331C50.7628 59.316 50.0452 59.1777 49.4099 58.9161C48.782 58.647 48.3036 58.2172 47.9747 57.6267C47.6757 57.0735 47.5187 56.5129 47.5037 55.9448C47.4888 55.3692 47.4813 54.7189 47.4813 53.9938V43.6559H50.5311V53.8144C50.5311 54.2854 50.5349 54.7114 50.5423 55.0927C50.5573 55.4664 50.6358 55.7654 50.7778 55.9897C51.0469 56.4157 51.4767 56.6475 52.0672 56.6848C52.6578 56.7222 53.3118 56.6923 54.0294 56.5951V59.1292ZM45.4182 49.3743V47.0197H54.0294V49.3743H45.4182ZM60.3409 59.4655C59.4738 59.4655 58.7375 59.3011 58.132 58.9722C57.534 58.6358 57.078 58.191 56.7641 57.6379C56.4576 57.0773 56.3044 56.4606 56.3044 55.7878C56.3044 55.2272 56.3903 54.7152 56.5623 54.2517C56.7342 53.7883 57.0108 53.3809 57.392 53.0296C57.7807 52.6708 58.3002 52.3718 58.9505 52.1326C59.399 51.9681 59.9335 51.8223 60.5539 51.6953C61.1743 51.5682 61.877 51.4486 62.6619 51.3365C63.4467 51.2169 64.3101 51.0861 65.2519 50.944L64.1531 51.5495C64.1531 50.8319 63.9812 50.3049 63.6373 49.9685C63.2935 49.6322 62.7179 49.464 61.9106 49.464C61.4621 49.464 60.9949 49.5724 60.5091 49.7891C60.0232 50.0059 59.6831 50.3909 59.4887 50.944L56.7304 50.0695C57.0369 49.0678 57.6125 48.253 58.4572 47.6251C59.3018 46.9972 60.453 46.6833 61.9106 46.6833C62.9795 46.6833 63.9289 46.8477 64.7586 47.1766C65.5883 47.5055 66.2162 48.0736 66.6423 48.8809C66.8815 49.3294 67.0235 49.7779 67.0684 50.2264C67.1132 50.6749 67.1356 51.1758 67.1356 51.7289V59.1292H64.4671V56.64L64.8483 57.1558C64.2578 57.9705 63.6187 58.5611 62.931 58.9273C62.2507 59.2861 61.3874 59.4655 60.3409 59.4655ZM60.9912 57.0661C61.5518 57.0661 62.0227 56.9689 62.404 56.7745C62.7927 56.5727 63.0991 56.3447 63.3234 56.0906C63.5551 55.8364 63.7121 55.6234 63.7943 55.4515C63.9513 55.1226 64.041 54.7413 64.0634 54.3078C64.0933 53.8668 64.1083 53.5005 64.1083 53.209L65.0053 53.4332C64.1008 53.5827 63.3682 53.7098 62.8076 53.8144C62.247 53.9116 61.7948 54.0013 61.4509 54.0835C61.1071 54.1658 60.8043 54.2555 60.5427 54.3526C60.2437 54.4722 60.0008 54.603 59.8139 54.7451C59.6345 54.8796 59.4999 55.0291 59.4102 55.1936C59.328 55.358 59.2869 55.5412 59.2869 55.743C59.2869 56.0196 59.3542 56.2588 59.4887 56.4606C59.6307 56.6549 59.8288 56.8044 60.083 56.9091C60.3371 57.0137 60.6399 57.0661 60.9912 57.0661ZM77.5659 59.1292C76.7287 59.2861 75.9065 59.3534 75.0992 59.331C74.2994 59.316 73.5818 59.1777 72.9464 58.9161C72.3185 58.647 71.8401 58.2172 71.5112 57.6267C71.2122 57.0735 71.0552 56.5129 71.0403 55.9448C71.0253 55.3692 71.0178 54.7189 71.0178 53.9938V43.6559H74.0676V53.8144C74.0676 54.2854 74.0714 54.7114 74.0788 55.0927C74.0938 55.4664 74.1723 55.7654 74.3143 55.9897C74.5834 56.4157 75.0132 56.6475 75.6037 56.6848C76.1943 56.7222 76.8483 56.6923 77.5659 56.5951V59.1292ZM68.9547 49.3743V47.0197H77.5659V49.3743H68.9547ZM80.7379 45.3378V42.6468H83.7877V45.3378H80.7379ZM80.7379 59.1292V47.0197H83.7877V59.1292H80.7379ZM92.13 59.4655C90.6051 59.4655 89.3717 59.1217 88.4299 58.434C87.4955 57.7388 86.9274 56.7596 86.7256 55.4963L89.8426 55.0254C89.9697 55.5935 90.25 56.0382 90.6836 56.3597C91.1246 56.6811 91.6815 56.8418 92.3542 56.8418C92.9074 56.8418 93.3335 56.7372 93.6325 56.5279C93.9315 56.3111 94.081 56.0121 94.081 55.6309C94.081 55.3917 94.0212 55.201 93.9016 55.059C93.782 54.9095 93.5129 54.7638 93.0943 54.6217C92.6831 54.4797 92.0403 54.2928 91.1657 54.0611C90.179 53.807 89.3904 53.5229 88.7999 53.209C88.2094 52.895 87.7833 52.5213 87.5217 52.0877C87.26 51.6467 87.1292 51.116 87.1292 50.4955C87.1292 49.7181 87.3273 49.0454 87.7235 48.4773C88.1197 47.9017 88.6765 47.4607 89.3941 47.1542C90.1192 46.8403 90.9714 46.6833 91.9506 46.6833C92.8999 46.6833 93.7409 46.829 94.4734 47.1206C95.206 47.4121 95.7965 47.827 96.245 48.3652C96.701 48.9034 96.9813 49.5387 97.0859 50.2713L93.9688 50.8319C93.9165 50.3834 93.7222 50.0283 93.3858 49.7667C93.0494 49.5051 92.5934 49.3519 92.0179 49.307C91.4572 49.2696 91.005 49.3444 90.6612 49.5312C90.3248 49.7181 90.1566 49.9872 90.1566 50.3386C90.1566 50.5479 90.2276 50.7235 90.3696 50.8655C90.5191 51.0076 90.8219 51.1533 91.2778 51.3028C91.7413 51.4523 92.4439 51.6467 93.3858 51.8859C94.3052 52.1251 95.0415 52.4054 95.5947 52.7268C96.1553 53.0408 96.5627 53.422 96.8168 53.8705C97.071 54.3115 97.198 54.846 97.198 55.4739C97.198 56.7147 96.7495 57.6902 95.8525 58.4003C94.9555 59.1105 93.7147 59.4655 92.13 59.4655ZM107.177 59.1292C106.34 59.2861 105.517 59.3534 104.71 59.331C103.91 59.316 103.193 59.1777 102.557 58.9161C101.929 58.647 101.451 58.2172 101.122 57.6267C100.823 57.0735 100.666 56.5129 100.651 55.9448C100.636 55.3692 100.629 54.7189 100.629 53.9938V43.6559H103.679V53.8144C103.679 54.2854 103.682 54.7114 103.69 55.0927C103.705 55.4664 103.783 55.7654 103.925 55.9897C104.194 56.4157 104.624 56.6475 105.215 56.6848C105.805 56.7222 106.459 56.6923 107.177 56.5951V59.1292ZM98.5657 49.3743V47.0197H107.177V49.3743H98.5657ZM110.349 45.3378V42.6468H113.399V45.3378H110.349ZM110.349 59.1292V47.0197H113.399V59.1292H110.349ZM122.346 59.4655C121.091 59.4655 120.014 59.1852 119.117 58.6246C118.22 58.064 117.532 57.3015 117.054 56.3372C116.576 55.373 116.336 54.2854 116.336 53.0744C116.336 51.8485 116.583 50.7534 117.077 49.7891C117.577 48.8249 118.28 48.0662 119.184 47.513C120.089 46.9599 121.158 46.6833 122.391 46.6833C123.819 46.6833 125.015 47.0458 125.979 47.7709C126.951 48.4885 127.571 49.4715 127.841 50.7198L124.791 51.5271C124.611 50.8992 124.297 50.4096 123.849 50.0582C123.408 49.7069 122.907 49.5312 122.346 49.5312C121.704 49.5312 121.177 49.6882 120.765 50.0022C120.354 50.3087 120.052 50.731 119.857 51.2692C119.663 51.7999 119.566 52.4017 119.566 53.0744C119.566 54.1284 119.797 54.9843 120.261 55.6421C120.732 56.2924 121.427 56.6176 122.346 56.6176C123.034 56.6176 123.557 56.4606 123.916 56.1466C124.275 55.8327 124.544 55.3842 124.723 54.8011L127.841 55.4515C127.497 56.7372 126.846 57.7276 125.89 58.4228C124.933 59.1179 123.752 59.4655 122.346 59.4655ZM135.064 59.4655C133.539 59.4655 132.306 59.1217 131.364 58.434C130.43 57.7388 129.861 56.7596 129.66 55.4963L132.777 55.0254C132.904 55.5935 133.184 56.0382 133.618 56.3597C134.059 56.6811 134.616 56.8418 135.288 56.8418C135.841 56.8418 136.268 56.7372 136.567 56.5279C136.866 56.3111 137.015 56.0121 137.015 55.6309C137.015 55.3917 136.955 55.201 136.836 55.059C136.716 54.9095 136.447 54.7638 136.028 54.6217C135.617 54.4797 134.974 54.2928 134.1 54.0611C133.113 53.807 132.324 53.5229 131.734 53.209C131.143 52.895 130.717 52.5213 130.456 52.0877C130.194 51.6467 130.063 51.116 130.063 50.4955C130.063 49.7181 130.261 49.0454 130.658 48.4773C131.054 47.9017 131.611 47.4607 132.328 47.1542C133.053 46.8403 133.905 46.6833 134.885 46.6833C135.834 46.6833 136.675 46.829 137.407 47.1206C138.14 47.4121 138.731 47.827 139.179 48.3652C139.635 48.9034 139.915 49.5387 140.02 50.2713L136.903 50.8319C136.851 50.3834 136.656 50.0283 136.32 49.7667C135.983 49.5051 135.527 49.3519 134.952 49.307C134.391 49.2696 133.939 49.3444 133.595 49.5312C133.259 49.7181 133.091 49.9872 133.091 50.3386C133.091 50.5479 133.162 50.7235 133.304 50.8655C133.453 51.0076 133.756 51.1533 134.212 51.3028C134.675 51.4523 135.378 51.6467 136.32 51.8859C137.239 52.1251 137.976 52.4054 138.529 52.7268C139.089 53.0408 139.497 53.422 139.751 53.8705C140.005 54.3115 140.132 54.846 140.132 55.4739C140.132 56.7147 139.684 57.6902 138.787 58.4003C137.89 59.1105 136.649 59.4655 135.064 59.4655Z" fill="#1A202C"/>
<path d="M32.8226 109.192V99.9001L30.7969 101.126V99.6385L32.8226 98.4275H34.1756V109.192H32.8226ZM41.151 109.416C40.4534 109.416 39.8304 109.259 39.2823 108.945C38.7391 108.626 38.308 108.195 37.9891 107.652C37.6751 107.104 37.5182 106.481 37.5182 105.783V101.836C37.5182 101.138 37.6751 100.516 37.9891 99.9674C38.308 99.4192 38.7391 98.9882 39.2823 98.6742C39.8304 98.3603 40.4534 98.2033 41.151 98.2033C41.8487 98.2033 42.4716 98.3603 43.0198 98.6742C43.5679 98.9882 43.999 99.4192 44.3129 99.9674C44.6269 100.516 44.7839 101.138 44.7839 101.836V105.783C44.7839 106.481 44.6269 107.104 44.3129 107.652C43.999 108.195 43.5679 108.626 43.0198 108.945C42.4716 109.259 41.8487 109.416 41.151 109.416ZM41.151 108.138C41.5746 108.138 41.9583 108.035 42.3022 107.831C42.646 107.627 42.9201 107.353 43.1244 107.009C43.3287 106.66 43.4309 106.276 43.4309 105.858V101.754C43.4309 101.33 43.3287 100.947 43.1244 100.603C42.9201 100.259 42.646 99.9848 42.3022 99.7805C41.9583 99.5762 41.5746 99.474 41.151 99.474C40.7324 99.474 40.3487 99.5762 39.9999 99.7805C39.656 99.9848 39.3819 100.259 39.1776 100.603C38.9733 100.947 38.8711 101.33 38.8711 101.754V105.858C38.8711 106.276 38.9733 106.66 39.1776 107.009C39.3819 107.353 39.656 107.627 39.9999 107.831C40.3487 108.035 40.7324 108.138 41.151 108.138ZM47.3674 109.192L47.3749 98.4275H48.7204V105.006L52.1065 101.119H53.8333L50.2677 105.155L54.2519 109.192H52.3906L48.7204 105.305V109.192H47.3674Z" fill="#718096"/>
<path d="M34.1308 164.789C33.5776 164.789 33.0618 164.675 32.5834 164.446C32.11 164.216 31.7039 163.902 31.365 163.504C31.0311 163.1 30.7919 162.637 30.6474 162.113L31.9256 161.77C32.0153 162.123 32.1748 162.43 32.404 162.689C32.6333 162.943 32.8999 163.142 33.2039 163.287C33.5128 163.426 33.8342 163.496 34.1681 163.496C34.6067 163.496 35.0003 163.392 35.3492 163.182C35.703 162.968 35.9821 162.686 36.1864 162.338C36.3907 161.984 36.4929 161.598 36.4929 161.179C36.4929 160.745 36.3857 160.354 36.1714 160.005C35.9621 159.652 35.6806 159.373 35.3268 159.168C34.9729 158.964 34.5867 158.862 34.1681 158.862C33.6947 158.862 33.2886 158.961 32.9497 159.161C32.6158 159.355 32.3517 159.594 32.1574 159.878L30.9763 159.43L31.3052 153.801H37.0834V155.064H31.9481L32.5386 154.511L32.262 159.019L31.9705 158.638C32.2695 158.319 32.6258 158.072 33.0394 157.897C33.458 157.723 33.8841 157.636 34.3176 157.636C34.9854 157.636 35.5834 157.793 36.1116 158.107C36.6399 158.416 37.0585 158.839 37.3674 159.378C37.6764 159.911 37.8309 160.511 37.8309 161.179C37.8309 161.842 37.6614 162.447 37.3226 162.995C36.9837 163.539 36.5327 163.975 35.9696 164.304C35.4115 164.627 34.7985 164.789 34.1308 164.789ZM40.1094 164.565L40.1169 153.801H41.4624V160.379L44.8486 156.492H46.5753L43.0097 160.529L46.9939 164.565H45.1326L41.4624 160.678V164.565H40.1094Z" fill="#718096"/>
<path d="M33.899 220.148C33.3658 220.148 32.87 220.051 32.4115 219.856C31.953 219.657 31.5569 219.378 31.223 219.019C30.8941 218.656 30.6524 218.224 30.4979 217.726L31.7761 217.36C31.9406 217.858 32.2147 218.237 32.5984 218.496C32.9821 218.755 33.4132 218.882 33.8916 218.877C34.3301 218.867 34.7088 218.768 35.0278 218.578C35.3517 218.384 35.6008 218.12 35.7753 217.786C35.9547 217.452 36.0444 217.066 36.0444 216.627C36.0444 215.96 35.845 215.419 35.4464 215.005C35.0477 214.587 34.5244 214.377 33.8766 214.377C33.6972 214.377 33.5078 214.402 33.3085 214.452C33.1142 214.502 32.9323 214.572 32.7628 214.661L32.12 213.607L36.1116 209.997L36.2836 210.445H30.924V209.175H37.2703V210.453L33.8691 213.712L33.8542 213.241C34.5668 213.191 35.1897 213.308 35.7229 213.592C36.2561 213.876 36.6698 214.283 36.9638 214.811C37.2628 215.339 37.4123 215.945 37.4123 216.627C37.4123 217.315 37.2578 217.923 36.9488 218.451C36.6399 218.979 36.2213 219.396 35.693 219.7C35.1648 219.999 34.5668 220.148 33.899 220.148ZM39.8466 219.939L39.8541 209.175H41.1996V215.753L44.5858 211.866H46.3125L42.7469 215.902L46.7311 219.939H44.8698L41.1996 216.052V219.939H39.8466Z" fill="#718096"/>
<path d="M34.5793 275.537C33.8816 275.537 33.2587 275.38 32.7105 275.066C32.1673 274.747 31.7363 274.316 31.4173 273.773C31.1034 273.224 30.9464 272.601 30.9464 271.904V267.957C30.9464 267.259 31.1034 266.636 31.4173 266.088C31.7363 265.54 32.1673 265.109 32.7105 264.795C33.2587 264.481 33.8816 264.324 34.5793 264.324C35.2769 264.324 35.8998 264.481 36.448 264.795C36.9962 265.109 37.4272 265.54 37.7412 266.088C38.0551 266.636 38.2121 267.259 38.2121 267.957V271.904C38.2121 272.601 38.0551 273.224 37.7412 273.773C37.4272 274.316 36.9962 274.747 36.448 275.066C35.8998 275.38 35.2769 275.537 34.5793 275.537ZM34.5793 274.258C35.0028 274.258 35.3866 274.156 35.7304 273.952C36.0743 273.748 36.3483 273.474 36.5527 273.13C36.757 272.781 36.8591 272.397 36.8591 271.979V267.875C36.8591 267.451 36.757 267.067 36.5527 266.724C36.3483 266.38 36.0743 266.106 35.7304 265.901C35.3866 265.697 35.0028 265.595 34.5793 265.595C34.1607 265.595 33.7769 265.697 33.4281 265.901C33.0843 266.106 32.8102 266.38 32.6059 266.724C32.4015 267.067 32.2994 267.451 32.2994 267.875V271.979C32.2994 272.397 32.4015 272.781 32.6059 273.13C32.8102 273.474 33.0843 273.748 33.4281 273.952C33.7769 274.156 34.1607 274.258 34.5793 274.258ZM40.7956 275.312L40.8031 264.548H42.1486V271.126L45.5348 267.239H47.2615L43.6959 271.276L47.6801 275.312H45.8188L42.1486 271.425V275.312H40.7956Z" fill="#718096"/>
<g clip-path="url(#clip0_238_8506)">
<rect x="420.329" y="40.8999" width="32.3917" height="19.9333" rx="9.96667" fill="#4E8D6D"/>
<rect x="434.033" y="42.1457" width="17.4417" height="17.4417" rx="8.72083" fill="white"/>
<rect x="434.033" y="42.1457" width="17.4417" height="17.4417" rx="8.72083" stroke="#4E8D6D" stroke-width="2.49167"/>
</g>
<path d="M463.734 56.8662V46.1022H465.558L469.116 53.2483L472.674 46.1022H474.498V56.8662H472.599V50.4377L469.475 56.8662H468.757L465.633 50.4377V56.8662H463.734ZM480.727 57.0905C479.915 57.0905 479.203 56.9086 478.59 56.5448C477.977 56.181 477.498 55.6802 477.154 55.0423C476.816 54.3995 476.646 53.6619 476.646 52.8297C476.646 51.9875 476.821 51.2475 477.169 50.6096C477.518 49.9668 477.999 49.466 478.612 49.1072C479.225 48.7484 479.93 48.569 480.727 48.569C481.54 48.569 482.252 48.7509 482.865 49.1146C483.483 49.4784 483.964 49.9817 484.308 50.6246C484.652 51.2625 484.824 51.9975 484.824 52.8297C484.824 53.6669 484.649 54.4069 484.3 55.0498C483.957 55.6877 483.476 56.1885 482.858 56.5523C482.245 56.9111 481.535 57.0905 480.727 57.0905ZM480.727 55.1918C481.38 55.1918 481.866 54.9725 482.185 54.534C482.509 54.0905 482.671 53.5224 482.671 52.8297C482.671 52.1121 482.506 51.539 482.178 51.1105C481.854 50.6819 481.37 50.4676 480.727 50.4676C480.284 50.4676 479.92 50.5673 479.636 50.7666C479.352 50.9659 479.14 51.2425 479.001 51.5963C478.866 51.9502 478.799 52.3613 478.799 52.8297C478.799 53.5523 478.961 54.1279 479.285 54.5564C479.614 54.98 480.095 55.1918 480.727 55.1918ZM492.467 56.8662V53.054C492.467 52.8696 492.458 52.6354 492.438 52.3513C492.418 52.0623 492.355 51.7732 492.251 51.4842C492.146 51.1952 491.974 50.9535 491.735 50.7591C491.501 50.5648 491.167 50.4676 490.733 50.4676C490.559 50.4676 490.372 50.495 490.173 50.5498C489.973 50.6047 489.786 50.7118 489.612 50.8713C489.438 51.0257 489.293 51.255 489.178 51.559C489.069 51.8629 489.014 52.2666 489.014 52.7699L487.848 52.2168C487.848 51.5789 487.977 50.9809 488.237 50.4228C488.496 49.8646 488.884 49.4136 489.403 49.0698C489.926 48.7259 490.584 48.554 491.376 48.554C492.009 48.554 492.525 48.6612 492.923 48.8754C493.322 49.0897 493.631 49.3613 493.85 49.6902C494.075 50.0191 494.234 50.363 494.329 50.7218C494.423 51.0756 494.481 51.3995 494.501 51.6935C494.521 51.9875 494.531 52.2018 494.531 52.3364V56.8662H492.467ZM486.951 56.8662V48.7932H488.76V51.4693H489.014V56.8662H486.951ZM500.575 57.0905C499.748 57.0905 499.018 56.9136 498.385 56.5597C497.757 56.2009 497.264 55.7101 496.905 55.0872C496.551 54.4593 496.374 53.7417 496.374 52.9344C496.374 52.0523 496.548 51.2849 496.897 50.6321C497.246 49.9792 497.727 49.4734 498.34 49.1146C498.953 48.7509 499.658 48.569 500.455 48.569C501.303 48.569 502.023 48.7683 502.616 49.167C503.209 49.5656 503.647 50.1263 503.931 50.8488C504.215 51.5714 504.315 52.4211 504.23 53.3978H502.22V52.6503C502.22 51.8281 502.087 51.2375 501.823 50.8787C501.564 50.515 501.138 50.3331 500.545 50.3331C499.852 50.3331 499.342 50.5449 499.013 50.9684C498.689 51.387 498.527 52.0075 498.527 52.8297C498.527 53.5822 498.689 54.1652 499.013 54.5789C499.342 54.9875 499.823 55.1918 500.455 55.1918C500.854 55.1918 501.195 55.1046 501.479 54.9302C501.764 54.7558 501.98 54.5041 502.13 54.1752L504.163 54.7583C503.859 55.4958 503.378 56.0689 502.72 56.4775C502.068 56.8861 501.352 57.0905 500.575 57.0905ZM497.899 53.3978V51.8879H503.251V53.3978H497.899ZM507.302 60.4542L508.857 56.1785L508.887 57.4343L505.373 48.7932H507.481L509.843 54.9078H509.365L511.712 48.7932H513.745L509.186 60.4542H507.302ZM518.936 56.8662V46.1022H520.969V56.8662H518.936ZM529.21 56.8662V53.054C529.21 52.8696 529.2 52.6354 529.18 52.3513C529.16 52.0623 529.098 51.7732 528.993 51.4842C528.888 51.1952 528.716 50.9535 528.477 50.7591C528.243 50.5648 527.909 50.4676 527.476 50.4676C527.301 50.4676 527.114 50.495 526.915 50.5498C526.716 50.6047 526.529 50.7118 526.354 50.8713C526.18 51.0257 526.035 51.255 525.921 51.559C525.811 51.8629 525.756 52.2666 525.756 52.7699L524.59 52.2168C524.59 51.5789 524.72 50.9809 524.979 50.4228C525.238 49.8646 525.627 49.4136 526.145 49.0698C526.668 48.7259 527.326 48.554 528.118 48.554C528.751 48.554 529.267 48.6612 529.666 48.8754C530.064 49.0897 530.373 49.3613 530.593 49.6902C530.817 50.0191 530.976 50.363 531.071 50.7218C531.166 51.0756 531.223 51.3995 531.243 51.6935C531.263 51.9875 531.273 52.2018 531.273 52.3364V56.8662H529.21ZM523.693 56.8662V48.7932H525.502V51.4693H525.756V56.8662H523.693Z" fill="#1A202C"/>
<g clip-path="url(#clip1_238_8506)">
<rect x="562.587" y="40.8999" width="32.3917" height="19.9333" rx="9.96667" fill="#EEFFF6"/>
<rect x="563.833" y="42.1457" width="17.4417" height="17.4417" rx="8.72083" fill="white"/>
<rect x="563.833" y="42.1457" width="17.4417" height="17.4417" rx="8.72083" stroke="#EEFFF6" stroke-width="2.49167"/>
</g>
<path d="M605.992 56.8665V46.1025H607.816L611.374 53.2486L614.932 46.1025H616.756V56.8665H614.858V50.438L611.733 56.8665H611.016L607.891 50.438V56.8665H605.992ZM622.986 57.0907C622.173 57.0907 621.461 56.9088 620.848 56.545C620.235 56.1812 619.757 55.6804 619.413 55.0426C619.074 54.3997 618.904 53.6622 618.904 52.83C618.904 51.9878 619.079 51.2477 619.428 50.6099C619.776 49.967 620.257 49.4662 620.87 49.1074C621.483 48.7486 622.188 48.5692 622.986 48.5692C623.798 48.5692 624.511 48.7511 625.124 49.1149C625.742 49.4787 626.222 49.982 626.566 50.6248C626.91 51.2627 627.082 51.9977 627.082 52.83C627.082 53.6672 626.908 54.4072 626.559 55.05C626.215 55.6879 625.734 56.1887 625.116 56.5525C624.503 56.9113 623.793 57.0907 622.986 57.0907ZM622.986 55.1921C623.639 55.1921 624.124 54.9728 624.443 54.5343C624.767 54.0907 624.929 53.5226 624.929 52.83C624.929 52.1124 624.765 51.5393 624.436 51.1107C624.112 50.6821 623.629 50.4679 622.986 50.4679C622.542 50.4679 622.178 50.5675 621.894 50.7669C621.61 50.9662 621.399 51.2428 621.259 51.5966C621.124 51.9504 621.057 52.3615 621.057 52.83C621.057 53.5525 621.219 54.1281 621.543 54.5567C621.872 54.9803 622.353 55.1921 622.986 55.1921ZM634.726 56.8665V53.0542C634.726 52.8698 634.716 52.6356 634.696 52.3516C634.676 52.0625 634.614 51.7735 634.509 51.4845C634.404 51.1954 634.232 50.9537 633.993 50.7594C633.759 50.565 633.425 50.4679 632.992 50.4679C632.817 50.4679 632.63 50.4953 632.431 50.5501C632.232 50.6049 632.045 50.712 631.87 50.8715C631.696 51.026 631.551 51.2552 631.437 51.5592C631.327 51.8632 631.272 52.2668 631.272 52.7702L630.106 52.217C630.106 51.5791 630.236 50.9811 630.495 50.423C630.754 49.8649 631.143 49.4139 631.661 49.07C632.184 48.7262 632.842 48.5543 633.634 48.5543C634.267 48.5543 634.783 48.6614 635.182 48.8757C635.58 49.09 635.889 49.3616 636.109 49.6905C636.333 50.0194 636.492 50.3632 636.587 50.722C636.682 51.0758 636.739 51.3997 636.759 51.6938C636.779 51.9878 636.789 52.2021 636.789 52.3366V56.8665H634.726ZM629.209 56.8665V48.7935H631.018V51.4695H631.272V56.8665H629.209ZM642.833 57.0907C642.006 57.0907 641.276 56.9138 640.643 56.56C640.015 56.2012 639.522 55.7103 639.163 55.0874C638.809 54.4595 638.632 53.7419 638.632 52.9346C638.632 52.0526 638.807 51.2851 639.156 50.6323C639.504 49.9795 639.985 49.4737 640.598 49.1149C641.211 48.7511 641.916 48.5692 642.714 48.5692C643.561 48.5692 644.281 48.7685 644.874 49.1672C645.467 49.5659 645.906 50.1265 646.19 50.8491C646.474 51.5717 646.573 52.4213 646.489 53.3981H644.478V52.6506C644.478 51.8283 644.346 51.2378 644.082 50.879C643.822 50.5152 643.396 50.3333 642.803 50.3333C642.111 50.3333 641.6 50.5451 641.271 50.9687C640.947 51.3873 640.785 52.0077 640.785 52.83C640.785 53.5824 640.947 54.1655 641.271 54.5791C641.6 54.9877 642.081 55.1921 642.714 55.1921C643.112 55.1921 643.454 55.1048 643.738 54.9304C644.022 54.756 644.239 54.5044 644.388 54.1755L646.421 54.7585C646.117 55.496 645.636 56.0691 644.979 56.4778C644.326 56.8864 643.611 57.0907 642.833 57.0907ZM640.157 53.3981V51.8881H645.509V53.3981H640.157ZM649.56 60.4545L651.115 56.1788L651.145 57.4346L647.632 48.7935H649.74L652.102 54.908H651.623L653.971 48.7935H656.004L651.444 60.4545H649.56ZM665.664 57.0907C664.588 57.0907 663.658 56.8565 662.876 56.3881C662.098 55.9196 661.498 55.2643 661.074 54.4221C660.656 53.5799 660.447 52.6007 660.447 51.4845C660.447 50.3682 660.656 49.389 661.074 48.5468C661.498 47.7046 662.098 47.0493 662.876 46.5809C663.658 46.1124 664.588 45.8782 665.664 45.8782C666.74 45.8782 667.667 46.1124 668.445 46.5809C669.227 47.0493 669.828 47.7046 670.246 48.5468C670.67 49.389 670.882 50.3682 670.882 51.4845C670.882 52.6007 670.67 53.5799 670.246 54.4221C669.828 55.2643 669.227 55.9196 668.445 56.3881C667.667 56.8565 666.74 57.0907 665.664 57.0907ZM665.664 55.1771C666.347 55.1871 666.915 55.0401 667.368 54.7361C667.822 54.4321 668.161 54.001 668.385 53.4429C668.614 52.8848 668.729 52.232 668.729 51.4845C668.729 50.737 668.614 50.0891 668.385 49.541C668.161 48.9928 667.822 48.5667 667.368 48.2627C666.915 47.9587 666.347 47.8018 665.664 47.7918C664.981 47.7818 664.413 47.9288 663.96 48.2328C663.506 48.5368 663.165 48.9679 662.936 49.526C662.711 50.0841 662.599 50.737 662.599 51.4845C662.599 52.232 662.711 52.8798 662.936 53.428C663.165 53.9761 663.506 54.4022 663.96 54.7062C664.413 55.0102 664.981 55.1671 665.664 55.1771ZM675.877 57.1057C675.244 57.1057 674.728 56.9985 674.33 56.7842C673.931 56.5699 673.62 56.2984 673.395 55.9695C673.176 55.6406 673.019 55.2992 672.924 54.9454C672.83 54.5866 672.772 54.2602 672.753 53.9662C672.733 53.6721 672.723 53.4579 672.723 53.3233V48.7935H674.786V52.6057C674.786 52.7901 674.796 53.0268 674.816 53.3158C674.836 53.5999 674.898 53.8864 675.003 54.1755C675.107 54.4645 675.277 54.7062 675.511 54.9005C675.75 55.0949 676.086 55.1921 676.52 55.1921C676.694 55.1921 676.881 55.1646 677.081 55.1098C677.28 55.055 677.467 54.9504 677.641 54.7959C677.816 54.6364 677.958 54.4047 678.067 54.1007C678.182 53.7917 678.239 53.3881 678.239 52.8898L679.405 53.4429C679.405 54.0808 679.276 54.6788 679.017 55.2369C678.757 55.795 678.366 56.246 677.843 56.5899C677.325 56.9337 676.669 57.1057 675.877 57.1057ZM678.493 56.8665V54.1904H678.239V48.7935H680.287V56.8665H678.493ZM687.719 56.8665C687.16 56.9711 686.612 57.016 686.074 57.001C685.541 56.991 685.062 56.8988 684.639 56.7244C684.22 56.545 683.901 56.2585 683.682 55.8648C683.483 55.496 683.378 55.1223 683.368 54.7436C683.358 54.3598 683.353 53.9263 683.353 53.4429V46.551H685.386V53.3233C685.386 53.6373 685.389 53.9213 685.394 54.1755C685.404 54.4246 685.456 54.624 685.551 54.7735C685.73 55.0575 686.017 55.212 686.41 55.2369C686.804 55.2618 687.24 55.2419 687.719 55.1771V56.8665ZM681.978 50.3632V48.7935H687.719V50.3632H681.978Z" fill="#1A202C"/>
<path d="M87.6021 313.725C86.8845 313.725 86.2691 313.526 85.7558 313.127C85.2425 312.728 84.8962 312.195 84.7168 311.527L85.8156 311.266C85.9053 311.659 86.1121 311.993 86.436 312.267C86.7649 312.536 87.1512 312.671 87.5947 312.671C87.8737 312.671 88.1553 312.604 88.4393 312.469C88.7284 312.335 88.9551 312.113 89.1196 311.804C89.2292 311.59 89.2915 311.358 89.3064 311.109C89.3264 310.855 89.3363 310.551 89.3363 310.197V302.744H90.4426V310.197C90.4426 310.496 90.4402 310.767 90.4352 311.012C90.4302 311.251 90.4028 311.482 90.3529 311.707C90.3081 311.926 90.2209 312.148 90.0913 312.372C89.8322 312.825 89.4834 313.164 89.0448 313.389C88.6113 313.613 88.1304 313.725 87.6021 313.725ZM95.5062 313.732C94.8983 313.732 94.3875 313.623 93.9738 313.404C93.5652 313.184 93.2587 312.893 93.0544 312.529C92.8501 312.165 92.7479 311.769 92.7479 311.34C92.7479 310.902 92.8352 310.528 93.0096 310.219C93.189 309.905 93.4307 309.649 93.7346 309.449C94.0436 309.25 94.3999 309.098 94.8036 308.993C95.2122 308.894 95.6632 308.806 96.1565 308.732C96.6549 308.652 97.1408 308.585 97.6142 308.53C98.0926 308.47 98.5112 308.413 98.87 308.358L98.4813 308.597C98.4962 307.8 98.3417 307.209 98.0178 306.826C97.6939 306.442 97.1308 306.25 96.3285 306.25C95.7753 306.25 95.3069 306.375 94.9232 306.624C94.5444 306.873 94.2778 307.267 94.1233 307.805L93.0544 307.491C93.2388 306.768 93.6101 306.208 94.1682 305.809C94.7263 305.41 95.4514 305.211 96.3434 305.211C97.081 305.211 97.7064 305.35 98.2196 305.63C98.7379 305.904 99.1042 306.302 99.3185 306.826C99.4181 307.06 99.4829 307.321 99.5128 307.61C99.5427 307.899 99.5577 308.193 99.5577 308.492V313.508H98.5784V311.482L98.8625 311.602C98.5884 312.295 98.1623 312.823 97.5843 313.187C97.0062 313.551 96.3135 313.732 95.5062 313.732ZM95.6333 312.783C96.1466 312.783 96.5951 312.691 96.9788 312.507C97.3625 312.322 97.6715 312.07 97.9057 311.752C98.1399 311.428 98.2919 311.064 98.3617 310.66C98.4215 310.401 98.4539 310.117 98.4588 309.808C98.4638 309.494 98.4663 309.26 98.4663 309.105L98.8849 309.322C98.5112 309.372 98.105 309.422 97.6665 309.472C97.2329 309.522 96.8044 309.579 96.3808 309.644C95.9622 309.708 95.5835 309.786 95.2446 309.875C95.0154 309.94 94.7936 310.032 94.5793 310.152C94.365 310.267 94.1881 310.421 94.0486 310.615C93.914 310.81 93.8468 311.051 93.8468 311.34C93.8468 311.575 93.9041 311.801 94.0187 312.021C94.1383 312.24 94.3277 312.422 94.5868 312.566C94.8509 312.711 95.1997 312.783 95.6333 312.783ZM107.832 313.508V309.389C107.832 308.941 107.79 308.53 107.705 308.156C107.621 307.777 107.484 307.448 107.294 307.169C107.11 306.885 106.868 306.666 106.569 306.512C106.275 306.357 105.916 306.28 105.493 306.28C105.104 306.28 104.76 306.347 104.461 306.482C104.167 306.616 103.918 306.811 103.714 307.065C103.514 307.314 103.362 307.618 103.258 307.977C103.153 308.335 103.101 308.744 103.101 309.203L102.323 309.031C102.323 308.203 102.468 307.508 102.757 306.945C103.046 306.382 103.445 305.956 103.953 305.667C104.461 305.378 105.044 305.233 105.702 305.233C106.185 305.233 106.607 305.308 106.965 305.458C107.329 305.607 107.636 305.809 107.885 306.063C108.139 306.317 108.343 306.609 108.498 306.938C108.652 307.262 108.764 307.608 108.834 307.977C108.904 308.34 108.939 308.704 108.939 309.068V313.508H107.832ZM101.994 313.508V305.435H102.989V307.424H103.101V313.508H101.994ZM116.744 313.508V303.97L114.719 305.189V303.955L116.744 302.744H117.858V313.508H116.744ZM124.705 313.732C124.042 313.732 123.444 313.578 122.911 313.269C122.383 312.96 121.964 312.541 121.655 312.013C121.346 311.48 121.192 310.882 121.192 310.219V306.033C121.192 305.37 121.346 304.775 121.655 304.247C121.964 303.713 122.383 303.292 122.911 302.983C123.444 302.674 124.042 302.52 124.705 302.52C125.368 302.52 125.963 302.674 126.491 302.983C127.025 303.292 127.446 303.713 127.755 304.247C128.064 304.775 128.218 305.37 128.218 306.033V310.219C128.218 310.882 128.064 311.48 127.755 312.013C127.446 312.541 127.025 312.96 126.491 313.269C125.963 313.578 125.368 313.732 124.705 313.732ZM124.705 312.671C125.148 312.671 125.552 312.564 125.916 312.35C126.28 312.13 126.569 311.839 126.783 311.475C126.997 311.111 127.104 310.71 127.104 310.272V305.981C127.104 305.537 126.997 305.134 126.783 304.77C126.569 304.406 126.28 304.117 125.916 303.903C125.552 303.684 125.148 303.574 124.705 303.574C124.261 303.574 123.858 303.684 123.494 303.903C123.13 304.117 122.841 304.406 122.627 304.77C122.413 305.134 122.305 305.537 122.305 305.981V310.272C122.305 310.71 122.413 311.111 122.627 311.475C122.841 311.839 123.13 312.13 123.494 312.35C123.858 312.564 124.261 312.671 124.705 312.671Z" fill="#718096"/>
<path d="M180.306 313.725C179.588 313.725 178.973 313.526 178.459 313.127C177.946 312.728 177.6 312.195 177.42 311.527L178.519 311.266C178.609 311.659 178.816 311.993 179.14 312.267C179.469 312.536 179.855 312.671 180.298 312.671C180.577 312.671 180.859 312.604 181.143 312.469C181.432 312.335 181.659 312.113 181.823 311.804C181.933 311.59 181.995 311.358 182.01 311.109C182.03 310.855 182.04 310.551 182.04 310.197V302.744H183.146V310.197C183.146 310.496 183.144 310.767 183.139 311.012C183.134 311.251 183.106 311.482 183.057 311.707C183.012 311.926 182.925 312.148 182.795 312.372C182.536 312.825 182.187 313.164 181.748 313.389C181.315 313.613 180.834 313.725 180.306 313.725ZM188.21 313.732C187.602 313.732 187.091 313.623 186.677 313.404C186.269 313.184 185.962 312.893 185.758 312.529C185.554 312.165 185.452 311.769 185.452 311.34C185.452 310.902 185.539 310.528 185.713 310.219C185.893 309.905 186.134 309.649 186.438 309.449C186.747 309.25 187.104 309.098 187.507 308.993C187.916 308.894 188.367 308.806 188.86 308.732C189.358 308.652 189.844 308.585 190.318 308.53C190.796 308.47 191.215 308.413 191.574 308.358L191.185 308.597C191.2 307.8 191.045 307.209 190.721 306.826C190.398 306.442 189.834 306.25 189.032 306.25C188.479 306.25 188.01 306.375 187.627 306.624C187.248 306.873 186.981 307.267 186.827 307.805L185.758 307.491C185.942 306.768 186.314 306.208 186.872 305.809C187.43 305.41 188.155 305.211 189.047 305.211C189.785 305.211 190.41 305.35 190.923 305.63C191.442 305.904 191.808 306.302 192.022 306.826C192.122 307.06 192.187 307.321 192.216 307.61C192.246 307.899 192.261 308.193 192.261 308.492V313.508H191.282V311.482L191.566 311.602C191.292 312.295 190.866 312.823 190.288 313.187C189.71 313.551 189.017 313.732 188.21 313.732ZM188.337 312.783C188.85 312.783 189.299 312.691 189.682 312.507C190.066 312.322 190.375 312.07 190.609 311.752C190.844 311.428 190.996 311.064 191.065 310.66C191.125 310.401 191.157 310.117 191.162 309.808C191.167 309.494 191.17 309.26 191.17 309.105L191.589 309.322C191.215 309.372 190.809 309.422 190.37 309.472C189.937 309.522 189.508 309.579 189.084 309.644C188.666 309.708 188.287 309.786 187.948 309.875C187.719 309.94 187.497 310.032 187.283 310.152C187.069 310.267 186.892 310.421 186.752 310.615C186.618 310.81 186.55 311.051 186.55 311.34C186.55 311.575 186.608 311.801 186.722 312.021C186.842 312.24 187.031 312.422 187.29 312.566C187.555 312.711 187.903 312.783 188.337 312.783ZM200.536 313.508V309.389C200.536 308.941 200.494 308.53 200.409 308.156C200.324 307.777 200.187 307.448 199.998 307.169C199.813 306.885 199.572 306.666 199.273 306.512C198.979 306.357 198.62 306.28 198.196 306.28C197.808 306.28 197.464 306.347 197.165 306.482C196.871 306.616 196.622 306.811 196.417 307.065C196.218 307.314 196.066 307.618 195.961 307.977C195.857 308.335 195.804 308.744 195.804 309.203L195.027 309.031C195.027 308.203 195.172 307.508 195.461 306.945C195.75 306.382 196.148 305.956 196.657 305.667C197.165 305.378 197.748 305.233 198.406 305.233C198.889 305.233 199.31 305.308 199.669 305.458C200.033 305.607 200.339 305.809 200.588 306.063C200.843 306.317 201.047 306.609 201.201 306.938C201.356 307.262 201.468 307.608 201.538 307.977C201.607 308.34 201.642 308.704 201.642 309.068V313.508H200.536ZM194.698 313.508V305.435H195.692V307.424H195.804V313.508H194.698ZM209.448 313.508V303.97L207.422 305.189V303.955L209.448 302.744H210.562V313.508H209.448ZM215.772 313.508V303.97L213.746 305.189V303.955L215.772 302.744H216.885V313.508H215.772Z" fill="#718096"/>
<path d="M270.428 313.732C269.571 313.732 268.863 313.513 268.305 313.075C267.752 312.636 267.358 312.043 267.124 311.296L269.127 310.817C269.172 311.091 269.317 311.33 269.561 311.535C269.805 311.734 270.064 311.834 270.338 311.834C270.528 311.834 270.729 311.781 270.944 311.677C271.163 311.572 271.32 311.405 271.415 311.176C271.474 311.031 271.509 310.855 271.519 310.645C271.529 310.436 271.534 310.194 271.534 309.92V302.744H273.597V309.92C273.597 310.264 273.595 310.563 273.59 310.817C273.59 311.071 273.565 311.311 273.515 311.535C273.47 311.754 273.378 311.983 273.239 312.222C272.935 312.751 272.538 313.134 272.05 313.374C271.562 313.613 271.021 313.732 270.428 313.732ZM278.576 313.732C277.998 313.732 277.507 313.623 277.104 313.404C276.705 313.179 276.401 312.883 276.192 312.514C275.987 312.14 275.885 311.729 275.885 311.281C275.885 310.907 275.942 310.566 276.057 310.257C276.172 309.948 276.356 309.676 276.61 309.442C276.869 309.203 277.216 309.003 277.649 308.844C277.948 308.734 278.305 308.637 278.718 308.552C279.132 308.468 279.6 308.388 280.123 308.313C280.647 308.233 281.222 308.146 281.85 308.051L281.118 308.455C281.118 307.977 281.003 307.625 280.774 307.401C280.545 307.177 280.161 307.065 279.623 307.065C279.324 307.065 279.012 307.137 278.688 307.282C278.364 307.426 278.138 307.683 278.008 308.051L276.169 307.468C276.374 306.801 276.757 306.257 277.32 305.839C277.883 305.42 278.651 305.211 279.623 305.211C280.335 305.211 280.968 305.321 281.521 305.54C282.074 305.759 282.493 306.138 282.777 306.676C282.937 306.975 283.031 307.274 283.061 307.573C283.091 307.872 283.106 308.206 283.106 308.575V313.508H281.327V311.849L281.581 312.193C281.187 312.736 280.761 313.129 280.303 313.374C279.849 313.613 279.274 313.732 278.576 313.732ZM279.01 312.133C279.383 312.133 279.697 312.068 279.952 311.938C280.211 311.804 280.415 311.652 280.565 311.482C280.719 311.313 280.824 311.171 280.878 311.056C280.983 310.837 281.043 310.583 281.058 310.294C281.078 310 281.088 309.756 281.088 309.561L281.686 309.711C281.083 309.811 280.594 309.895 280.221 309.965C279.847 310.03 279.545 310.09 279.316 310.144C279.087 310.199 278.885 310.259 278.711 310.324C278.511 310.404 278.349 310.491 278.225 310.585C278.105 310.675 278.016 310.775 277.956 310.884C277.901 310.994 277.874 311.116 277.874 311.251C277.874 311.435 277.918 311.595 278.008 311.729C278.103 311.859 278.235 311.958 278.404 312.028C278.574 312.098 278.775 312.133 279.01 312.133ZM291.05 313.508V309.696C291.05 309.512 291.04 309.277 291.02 308.993C291 308.704 290.937 308.415 290.833 308.126C290.728 307.837 290.556 307.595 290.317 307.401C290.083 307.207 289.749 307.11 289.315 307.11C289.141 307.11 288.954 307.137 288.755 307.192C288.555 307.247 288.369 307.354 288.194 307.513C288.02 307.668 287.875 307.897 287.761 308.201C287.651 308.505 287.596 308.909 287.596 309.412L286.43 308.859C286.43 308.221 286.56 307.623 286.819 307.065C287.078 306.507 287.467 306.056 287.985 305.712C288.508 305.368 289.166 305.196 289.958 305.196C290.591 305.196 291.107 305.303 291.506 305.517C291.904 305.732 292.213 306.003 292.432 306.332C292.657 306.661 292.816 307.005 292.911 307.364C293.006 307.718 293.063 308.041 293.083 308.335C293.103 308.629 293.113 308.844 293.113 308.978V313.508H291.05ZM285.533 313.508V305.435H287.342V308.111H287.596V313.508H285.533ZM300.911 313.508V304.957L298.892 306.198V303.955L300.911 302.744H302.989V313.508H300.911ZM306.03 313.493V311.729L310.545 307.723C310.884 307.424 311.123 307.142 311.263 306.878C311.402 306.614 311.472 306.367 311.472 306.138C311.472 305.809 311.405 305.517 311.27 305.263C311.135 305.004 310.946 304.802 310.702 304.658C310.458 304.508 310.171 304.434 309.842 304.434C309.498 304.434 309.194 304.513 308.93 304.673C308.671 304.827 308.469 305.034 308.325 305.293C308.18 305.547 308.113 305.824 308.123 306.123H306.03C306.03 305.385 306.192 304.747 306.516 304.209C306.84 303.671 307.291 303.255 307.869 302.961C308.447 302.667 309.12 302.52 309.887 302.52C310.59 302.52 311.218 302.674 311.771 302.983C312.329 303.287 312.767 303.713 313.086 304.262C313.405 304.81 313.565 305.445 313.565 306.168C313.565 306.701 313.49 307.144 313.341 307.498C313.191 307.847 312.969 308.171 312.675 308.47C312.381 308.764 312.02 309.098 311.591 309.472L308.676 312.028L308.512 311.58H313.565V313.493H306.03Z" fill="#4E8D6D"/>
<path d="M365.713 313.725C364.995 313.725 364.38 313.526 363.867 313.127C363.353 312.728 363.007 312.195 362.828 311.527L363.926 311.266C364.016 311.659 364.223 311.993 364.547 312.267C364.876 312.536 365.262 312.671 365.706 312.671C365.985 312.671 366.266 312.604 366.55 312.469C366.839 312.335 367.066 312.113 367.23 311.804C367.34 311.59 367.402 311.358 367.417 311.109C367.437 310.855 367.447 310.551 367.447 310.197V302.744H368.553V310.197C368.553 310.496 368.551 310.767 368.546 311.012C368.541 311.251 368.514 311.482 368.464 311.707C368.419 311.926 368.332 312.148 368.202 312.372C367.943 312.825 367.594 313.164 367.156 313.389C366.722 313.613 366.241 313.725 365.713 313.725ZM373.617 313.732C373.009 313.732 372.498 313.623 372.085 313.404C371.676 313.184 371.37 312.893 371.165 312.529C370.961 312.165 370.859 311.769 370.859 311.34C370.859 310.902 370.946 310.528 371.12 310.219C371.3 309.905 371.542 309.649 371.845 309.449C372.154 309.25 372.511 309.098 372.914 308.993C373.323 308.894 373.774 308.806 374.267 308.732C374.766 308.652 375.252 308.585 375.725 308.53C376.203 308.47 376.622 308.413 376.981 308.358L376.592 308.597C376.607 307.8 376.453 307.209 376.129 306.826C375.805 306.442 375.242 306.25 374.439 306.25C373.886 306.25 373.418 306.375 373.034 306.624C372.655 306.873 372.389 307.267 372.234 307.805L371.165 307.491C371.35 306.768 371.721 306.208 372.279 305.809C372.837 305.41 373.562 305.211 374.454 305.211C375.192 305.211 375.817 305.35 376.33 305.63C376.849 305.904 377.215 306.302 377.429 306.826C377.529 307.06 377.594 307.321 377.624 307.61C377.654 307.899 377.669 308.193 377.669 308.492V313.508H376.689V311.482L376.973 311.602C376.699 312.295 376.273 312.823 375.695 313.187C375.117 313.551 374.424 313.732 373.617 313.732ZM373.744 312.783C374.257 312.783 374.706 312.691 375.09 312.507C375.473 312.322 375.782 312.07 376.017 311.752C376.251 311.428 376.403 311.064 376.473 310.66C376.532 310.401 376.565 310.117 376.57 309.808C376.575 309.494 376.577 309.26 376.577 309.105L376.996 309.322C376.622 309.372 376.216 309.422 375.777 309.472C375.344 309.522 374.915 309.579 374.492 309.644C374.073 309.708 373.694 309.786 373.355 309.875C373.126 309.94 372.904 310.032 372.69 310.152C372.476 310.267 372.299 310.421 372.159 310.615C372.025 310.81 371.958 311.051 371.958 311.34C371.958 311.575 372.015 311.801 372.13 312.021C372.249 312.24 372.439 312.422 372.698 312.566C372.962 312.711 373.311 312.783 373.744 312.783ZM385.943 313.508V309.389C385.943 308.941 385.901 308.53 385.816 308.156C385.732 307.777 385.594 307.448 385.405 307.169C385.221 306.885 384.979 306.666 384.68 306.512C384.386 306.357 384.027 306.28 383.604 306.28C383.215 306.28 382.871 306.347 382.572 306.482C382.278 306.616 382.029 306.811 381.825 307.065C381.625 307.314 381.473 307.618 381.369 307.977C381.264 308.335 381.212 308.744 381.212 309.203L380.434 309.031C380.434 308.203 380.579 307.508 380.868 306.945C381.157 306.382 381.555 305.956 382.064 305.667C382.572 305.378 383.155 305.233 383.813 305.233C384.296 305.233 384.717 305.308 385.076 305.458C385.44 305.607 385.746 305.809 385.996 306.063C386.25 306.317 386.454 306.609 386.609 306.938C386.763 307.262 386.875 307.608 386.945 307.977C387.015 308.34 387.05 308.704 387.05 309.068V313.508H385.943ZM380.105 313.508V305.435H381.099V307.424H381.212V313.508H380.105ZM394.855 313.508V303.97L392.829 305.189V303.955L394.855 302.744H395.969V313.508H394.855ZM402.195 313.725C401.662 313.725 401.171 313.63 400.723 313.441C400.274 313.252 399.888 312.982 399.564 312.634C399.24 312.28 399.004 311.859 398.854 311.37L399.901 311.056C400.08 311.59 400.374 311.993 400.783 312.267C401.196 312.541 401.662 312.673 402.18 312.664C402.659 312.654 403.07 312.546 403.414 312.342C403.763 312.138 404.029 311.854 404.214 311.49C404.398 311.126 404.49 310.705 404.49 310.227C404.49 309.494 404.276 308.906 403.847 308.463C403.424 308.014 402.863 307.79 402.165 307.79C401.971 307.79 401.767 307.817 401.552 307.872C401.338 307.922 401.139 307.994 400.954 308.089L400.401 307.214L404.587 303.35L404.767 303.798H399.28V302.744H405.499V303.813L401.851 307.296L401.837 306.863C402.584 306.768 403.242 306.853 403.81 307.117C404.378 307.381 404.822 307.785 405.14 308.328C405.464 308.866 405.626 309.499 405.626 310.227C405.626 310.914 405.477 311.522 405.178 312.051C404.884 312.574 404.478 312.985 403.959 313.284C403.441 313.578 402.853 313.725 402.195 313.725Z" fill="#718096"/>
<path d="M457.417 313.725C456.699 313.725 456.084 313.526 455.57 313.127C455.057 312.728 454.711 312.195 454.531 311.527L455.63 311.266C455.72 311.659 455.927 311.993 456.25 312.267C456.579 312.536 456.966 312.671 457.409 312.671C457.688 312.671 457.97 312.604 458.254 312.469C458.543 312.335 458.77 312.113 458.934 311.804C459.044 311.59 459.106 311.358 459.121 311.109C459.141 310.855 459.151 310.551 459.151 310.197V302.744H460.257V310.197C460.257 310.496 460.255 310.767 460.25 311.012C460.245 311.251 460.217 311.482 460.167 311.707C460.123 311.926 460.035 312.148 459.906 312.372C459.647 312.825 459.298 313.164 458.859 313.389C458.426 313.613 457.945 313.725 457.417 313.725ZM465.321 313.732C464.713 313.732 464.202 313.623 463.788 313.404C463.38 313.184 463.073 312.893 462.869 312.529C462.665 312.165 462.562 311.769 462.562 311.34C462.562 310.902 462.65 310.528 462.824 310.219C463.003 309.905 463.245 309.649 463.549 309.449C463.858 309.25 464.214 309.098 464.618 308.993C465.027 308.894 465.478 308.806 465.971 308.732C466.469 308.652 466.955 308.585 467.429 308.53C467.907 308.47 468.326 308.413 468.684 308.358L468.296 308.597C468.311 307.8 468.156 307.209 467.832 306.826C467.508 306.442 466.945 306.25 466.143 306.25C465.59 306.25 465.121 306.375 464.738 306.624C464.359 306.873 464.092 307.267 463.938 307.805L462.869 307.491C463.053 306.768 463.425 306.208 463.983 305.809C464.541 305.41 465.266 305.211 466.158 305.211C466.895 305.211 467.521 305.35 468.034 305.63C468.552 305.904 468.919 306.302 469.133 306.826C469.233 307.06 469.297 307.321 469.327 307.61C469.357 307.899 469.372 308.193 469.372 308.492V313.508H468.393V311.482L468.677 311.602C468.403 312.295 467.977 312.823 467.399 313.187C466.821 313.551 466.128 313.732 465.321 313.732ZM465.448 312.783C465.961 312.783 466.41 312.691 466.793 312.507C467.177 312.322 467.486 312.07 467.72 311.752C467.954 311.428 468.106 311.064 468.176 310.66C468.236 310.401 468.268 310.117 468.273 309.808C468.278 309.494 468.281 309.26 468.281 309.105L468.699 309.322C468.326 309.372 467.919 309.422 467.481 309.472C467.047 309.522 466.619 309.579 466.195 309.644C465.777 309.708 465.398 309.786 465.059 309.875C464.83 309.94 464.608 310.032 464.394 310.152C464.179 310.267 464.003 310.421 463.863 310.615C463.728 310.81 463.661 311.051 463.661 311.34C463.661 311.575 463.719 311.801 463.833 312.021C463.953 312.24 464.142 312.422 464.401 312.566C464.665 312.711 465.014 312.783 465.448 312.783ZM477.647 313.508V309.389C477.647 308.941 477.605 308.53 477.52 308.156C477.435 307.777 477.298 307.448 477.109 307.169C476.924 306.885 476.683 306.666 476.384 306.512C476.09 306.357 475.731 306.28 475.307 306.28C474.919 306.28 474.575 306.347 474.276 306.482C473.982 306.616 473.733 306.811 473.528 307.065C473.329 307.314 473.177 307.618 473.072 307.977C472.968 308.335 472.915 308.744 472.915 309.203L472.138 309.031C472.138 308.203 472.282 307.508 472.571 306.945C472.86 306.382 473.259 305.956 473.767 305.667C474.276 305.378 474.859 305.233 475.517 305.233C476 305.233 476.421 305.308 476.78 305.458C477.144 305.607 477.45 305.809 477.699 306.063C477.953 306.317 478.158 306.609 478.312 306.938C478.467 307.262 478.579 307.608 478.649 307.977C478.718 308.34 478.753 308.704 478.753 309.068V313.508H477.647ZM471.809 313.508V305.435H472.803V307.424H472.915V313.508H471.809ZM486.559 313.508V303.97L484.533 305.189V303.955L486.559 302.744H487.673V313.508H486.559ZM495.745 313.508V311.423H490.707V310.376L494.31 302.744H495.543L491.941 310.376H495.745V307.237H496.852V310.376H498.025V311.423H496.852V313.508H495.745Z" fill="#718096"/>
<path d="M550.12 313.725C549.403 313.725 548.787 313.526 548.274 313.127C547.761 312.728 547.414 312.195 547.235 311.527L548.334 311.266C548.423 311.659 548.63 311.993 548.954 312.267C549.283 312.536 549.669 312.671 550.113 312.671C550.392 312.671 550.673 312.604 550.957 312.469C551.246 312.335 551.473 312.113 551.638 311.804C551.747 311.59 551.81 311.358 551.825 311.109C551.844 310.855 551.854 310.551 551.854 310.197V302.744H552.961V310.197C552.961 310.496 552.958 310.767 552.953 311.012C552.948 311.251 552.921 311.482 552.871 311.707C552.826 311.926 552.739 312.148 552.609 312.372C552.35 312.825 552.001 313.164 551.563 313.389C551.129 313.613 550.648 313.725 550.12 313.725ZM558.024 313.732C557.416 313.732 556.906 313.623 556.492 313.404C556.083 313.184 555.777 312.893 555.572 312.529C555.368 312.165 555.266 311.769 555.266 311.34C555.266 310.902 555.353 310.528 555.528 310.219C555.707 309.905 555.949 309.649 556.253 309.449C556.562 309.25 556.918 309.098 557.322 308.993C557.73 308.894 558.181 308.806 558.675 308.732C559.173 308.652 559.659 308.585 560.132 308.53C560.611 308.47 561.029 308.413 561.388 308.358L560.999 308.597C561.014 307.8 560.86 307.209 560.536 306.826C560.212 306.442 559.649 306.25 558.847 306.25C558.293 306.25 557.825 306.375 557.441 306.624C557.063 306.873 556.796 307.267 556.641 307.805L555.572 307.491C555.757 306.768 556.128 306.208 556.686 305.809C557.244 305.41 557.969 305.211 558.861 305.211C559.599 305.211 560.224 305.35 560.738 305.63C561.256 305.904 561.622 306.302 561.837 306.826C561.936 307.06 562.001 307.321 562.031 307.61C562.061 307.899 562.076 308.193 562.076 308.492V313.508H561.097V311.482L561.381 311.602C561.106 312.295 560.68 312.823 560.102 313.187C559.524 313.551 558.832 313.732 558.024 313.732ZM558.151 312.783C558.665 312.783 559.113 312.691 559.497 312.507C559.881 312.322 560.19 312.07 560.424 311.752C560.658 311.428 560.81 311.064 560.88 310.66C560.94 310.401 560.972 310.117 560.977 309.808C560.982 309.494 560.984 309.26 560.984 309.105L561.403 309.322C561.029 309.372 560.623 309.422 560.185 309.472C559.751 309.522 559.322 309.579 558.899 309.644C558.48 309.708 558.102 309.786 557.763 309.875C557.533 309.94 557.312 310.032 557.097 310.152C556.883 310.267 556.706 310.421 556.567 310.615C556.432 310.81 556.365 311.051 556.365 311.34C556.365 311.575 556.422 311.801 556.537 312.021C556.656 312.24 556.846 312.422 557.105 312.566C557.369 312.711 557.718 312.783 558.151 312.783ZM570.351 313.508V309.389C570.351 308.941 570.308 308.53 570.223 308.156C570.139 307.777 570.002 307.448 569.812 307.169C569.628 306.885 569.386 306.666 569.087 306.512C568.793 306.357 568.434 306.28 568.011 306.28C567.622 306.28 567.278 306.347 566.979 306.482C566.685 306.616 566.436 306.811 566.232 307.065C566.032 307.314 565.88 307.618 565.776 307.977C565.671 308.335 565.619 308.744 565.619 309.203L564.841 309.031C564.841 308.203 564.986 307.508 565.275 306.945C565.564 306.382 565.963 305.956 566.471 305.667C566.979 305.378 567.562 305.233 568.22 305.233C568.704 305.233 569.125 305.308 569.483 305.458C569.847 305.607 570.154 305.809 570.403 306.063C570.657 306.317 570.861 306.609 571.016 306.938C571.17 307.262 571.282 307.608 571.352 307.977C571.422 308.34 571.457 308.704 571.457 309.068V313.508H570.351ZM564.513 313.508V305.435H565.507V307.424H565.619V313.508H564.513ZM579.262 313.508V303.97L577.237 305.189V303.955L579.262 302.744H580.376V313.508H579.262ZM586.887 313.732C586.328 313.732 585.813 313.618 585.339 313.389C584.866 313.159 584.462 312.843 584.128 312.439C583.794 312.036 583.555 311.572 583.411 311.049L584.465 310.765C584.559 311.154 584.731 311.49 584.98 311.774C585.23 312.053 585.521 312.27 585.855 312.424C586.194 312.579 586.548 312.656 586.917 312.656C587.395 312.656 587.823 312.541 588.202 312.312C588.586 312.078 588.89 311.769 589.114 311.385C589.338 311.002 589.451 310.58 589.451 310.122C589.451 309.649 589.333 309.223 589.099 308.844C588.865 308.46 588.556 308.156 588.172 307.932C587.789 307.708 587.37 307.595 586.917 307.595C586.408 307.595 585.97 307.708 585.601 307.932C585.232 308.151 584.938 308.428 584.719 308.762L583.717 308.343L584.046 302.744H589.794V303.798H584.532L585.078 303.282L584.786 308.059L584.51 307.693C584.819 307.339 585.192 307.062 585.631 306.863C586.069 306.664 586.53 306.564 587.014 306.564C587.676 306.564 588.274 306.723 588.808 307.042C589.341 307.356 589.764 307.782 590.078 308.321C590.392 308.859 590.549 309.459 590.549 310.122C590.549 310.78 590.382 311.383 590.049 311.931C589.715 312.474 589.271 312.91 588.718 313.239C588.165 313.568 587.554 313.732 586.887 313.732Z" fill="#718096"/>
<path d="M642.824 313.725C642.106 313.725 641.491 313.526 640.978 313.127C640.464 312.728 640.118 312.195 639.938 311.527L641.037 311.266C641.127 311.659 641.334 311.993 641.658 312.267C641.987 312.536 642.373 312.671 642.816 312.671C643.095 312.671 643.377 312.604 643.661 312.469C643.95 312.335 644.177 312.113 644.341 311.804C644.451 311.59 644.513 311.358 644.528 311.109C644.548 310.855 644.558 310.551 644.558 310.197V302.744H645.664V310.197C645.664 310.496 645.662 310.767 645.657 311.012C645.652 311.251 645.624 311.482 645.575 311.707C645.53 311.926 645.443 312.148 645.313 312.372C645.054 312.825 644.705 313.164 644.267 313.389C643.833 313.613 643.352 313.725 642.824 313.725ZM650.728 313.732C650.12 313.732 649.609 313.623 649.196 313.404C648.787 313.184 648.48 312.893 648.276 312.529C648.072 312.165 647.97 311.769 647.97 311.34C647.97 310.902 648.057 310.528 648.231 310.219C648.411 309.905 648.652 309.649 648.956 309.449C649.265 309.25 649.622 309.098 650.025 308.993C650.434 308.894 650.885 308.806 651.378 308.732C651.877 308.652 652.362 308.585 652.836 308.53C653.314 308.47 653.733 308.413 654.092 308.358L653.703 308.597C653.718 307.8 653.563 307.209 653.239 306.826C652.916 306.442 652.352 306.25 651.55 306.25C650.997 306.25 650.529 306.375 650.145 306.624C649.766 306.873 649.5 307.267 649.345 307.805L648.276 307.491C648.46 306.768 648.832 306.208 649.39 305.809C649.948 305.41 650.673 305.211 651.565 305.211C652.303 305.211 652.928 305.35 653.441 305.63C653.96 305.904 654.326 306.302 654.54 306.826C654.64 307.06 654.705 307.321 654.734 307.61C654.764 307.899 654.779 308.193 654.779 308.492V313.508H653.8V311.482L654.084 311.602C653.81 312.295 653.384 312.823 652.806 313.187C652.228 313.551 651.535 313.732 650.728 313.732ZM650.855 312.783C651.368 312.783 651.817 312.691 652.2 312.507C652.584 312.322 652.893 312.07 653.127 311.752C653.362 311.428 653.514 311.064 653.583 310.66C653.643 310.401 653.676 310.117 653.681 309.808C653.686 309.494 653.688 309.26 653.688 309.105L654.107 309.322C653.733 309.372 653.327 309.422 652.888 309.472C652.455 309.522 652.026 309.579 651.602 309.644C651.184 309.708 650.805 309.786 650.466 309.875C650.237 309.94 650.015 310.032 649.801 310.152C649.587 310.267 649.41 310.421 649.27 310.615C649.136 310.81 649.068 311.051 649.068 311.34C649.068 311.575 649.126 311.801 649.24 312.021C649.36 312.24 649.549 312.422 649.808 312.566C650.073 312.711 650.421 312.783 650.855 312.783ZM663.054 313.508V309.389C663.054 308.941 663.012 308.53 662.927 308.156C662.842 307.777 662.705 307.448 662.516 307.169C662.332 306.885 662.09 306.666 661.791 306.512C661.497 306.357 661.138 306.28 660.714 306.28C660.326 306.28 659.982 306.347 659.683 306.482C659.389 306.616 659.14 306.811 658.935 307.065C658.736 307.314 658.584 307.618 658.479 307.977C658.375 308.335 658.322 308.744 658.322 309.203L657.545 309.031C657.545 308.203 657.69 307.508 657.979 306.945C658.268 306.382 658.666 305.956 659.175 305.667C659.683 305.378 660.266 305.233 660.924 305.233C661.407 305.233 661.828 305.308 662.187 305.458C662.551 305.607 662.857 305.809 663.106 306.063C663.361 306.317 663.565 306.609 663.719 306.938C663.874 307.262 663.986 307.608 664.056 307.977C664.126 308.34 664.16 308.704 664.16 309.068V313.508H663.054ZM657.216 313.508V305.435H658.21V307.424H658.322V313.508H657.216ZM671.966 313.508V303.97L669.94 305.189V303.955L671.966 302.744H673.08V313.508H671.966ZM680.054 313.732C679.381 313.732 678.768 313.57 678.215 313.247C677.667 312.918 677.228 312.474 676.899 311.916C676.575 311.353 676.413 310.72 676.413 310.017V306.287C676.413 305.565 676.575 304.922 676.899 304.359C677.223 303.791 677.664 303.345 678.222 303.021C678.785 302.692 679.423 302.527 680.136 302.527C680.749 302.527 681.317 302.662 681.84 302.931C682.368 303.2 682.8 303.576 683.133 304.06L682.289 304.755C682.059 304.396 681.755 304.11 681.377 303.895C680.998 303.681 680.584 303.574 680.136 303.574C679.633 303.574 679.184 303.696 678.79 303.94C678.397 304.184 678.088 304.506 677.864 304.904C677.639 305.298 677.527 305.727 677.527 306.19V308.537L677.251 308.223C677.565 307.73 677.976 307.331 678.484 307.027C678.997 306.723 679.555 306.571 680.158 306.571C680.826 306.571 681.427 306.731 681.96 307.05C682.493 307.364 682.917 307.79 683.231 308.328C683.545 308.866 683.701 309.469 683.701 310.137C683.701 310.8 683.535 311.403 683.201 311.946C682.872 312.489 682.431 312.923 681.878 313.247C681.329 313.57 680.721 313.732 680.054 313.732ZM680.054 312.664C680.522 312.664 680.948 312.551 681.332 312.327C681.721 312.103 682.027 311.799 682.251 311.415C682.481 311.031 682.595 310.605 682.595 310.137C682.595 309.669 682.481 309.242 682.251 308.859C682.027 308.47 681.723 308.164 681.339 307.939C680.956 307.71 680.53 307.595 680.061 307.595C679.593 307.595 679.167 307.71 678.783 307.939C678.399 308.164 678.093 308.47 677.864 308.859C677.639 309.242 677.527 309.669 677.527 310.137C677.527 310.6 677.639 311.024 677.864 311.408C678.088 311.791 678.392 312.098 678.775 312.327C679.159 312.551 679.585 312.664 680.054 312.664Z" fill="#718096"/>
<path d="M735.528 313.725C734.81 313.725 734.195 313.526 733.682 313.127C733.168 312.728 732.822 312.195 732.643 311.527L733.741 311.266C733.831 311.659 734.038 311.993 734.362 312.267C734.691 312.536 735.077 312.671 735.52 312.671C735.8 312.671 736.081 312.604 736.365 312.469C736.654 312.335 736.881 312.113 737.045 311.804C737.155 311.59 737.217 311.358 737.232 311.109C737.252 310.855 737.262 310.551 737.262 310.197V302.744H738.368V310.197C738.368 310.496 738.366 310.767 738.361 311.012C738.356 311.251 738.329 311.482 738.279 311.707C738.234 311.926 738.147 312.148 738.017 312.372C737.758 312.825 737.409 313.164 736.971 313.389C736.537 313.613 736.056 313.725 735.528 313.725ZM743.432 313.732C742.824 313.732 742.313 313.623 741.9 313.404C741.491 313.184 741.185 312.893 740.98 312.529C740.776 312.165 740.674 311.769 740.674 311.34C740.674 310.902 740.761 310.528 740.935 310.219C741.115 309.905 741.356 309.649 741.66 309.449C741.969 309.25 742.326 309.098 742.729 308.993C743.138 308.894 743.589 308.806 744.082 308.732C744.581 308.652 745.067 308.585 745.54 308.53C746.018 308.47 746.437 308.413 746.796 308.358L746.407 308.597C746.422 307.8 746.268 307.209 745.944 306.826C745.62 306.442 745.057 306.25 744.254 306.25C743.701 306.25 743.233 306.375 742.849 306.624C742.47 306.873 742.204 307.267 742.049 307.805L740.98 307.491C741.165 306.768 741.536 306.208 742.094 305.809C742.652 305.41 743.377 305.211 744.269 305.211C745.007 305.211 745.632 305.35 746.145 305.63C746.664 305.904 747.03 306.302 747.244 306.826C747.344 307.06 747.409 307.321 747.439 307.61C747.469 307.899 747.483 308.193 747.483 308.492V313.508H746.504V311.482L746.788 311.602C746.514 312.295 746.088 312.823 745.51 313.187C744.932 313.551 744.239 313.732 743.432 313.732ZM743.559 312.783C744.072 312.783 744.521 312.691 744.905 312.507C745.288 312.322 745.597 312.07 745.831 311.752C746.066 311.428 746.218 311.064 746.287 310.66C746.347 310.401 746.38 310.117 746.385 309.808C746.39 309.494 746.392 309.26 746.392 309.105L746.811 309.322C746.437 309.372 746.031 309.422 745.592 309.472C745.159 309.522 744.73 309.579 744.307 309.644C743.888 309.708 743.509 309.786 743.17 309.875C742.941 309.94 742.719 310.032 742.505 310.152C742.291 310.267 742.114 310.421 741.974 310.615C741.84 310.81 741.773 311.051 741.773 311.34C741.773 311.575 741.83 311.801 741.944 312.021C742.064 312.24 742.253 312.422 742.513 312.566C742.777 312.711 743.126 312.783 743.559 312.783ZM755.758 313.508V309.389C755.758 308.941 755.716 308.53 755.631 308.156C755.546 307.777 755.409 307.448 755.22 307.169C755.036 306.885 754.794 306.666 754.495 306.512C754.201 306.357 753.842 306.28 753.419 306.28C753.03 306.28 752.686 306.347 752.387 306.482C752.093 306.616 751.844 306.811 751.64 307.065C751.44 307.314 751.288 307.618 751.184 307.977C751.079 308.335 751.027 308.744 751.027 309.203L750.249 309.031C750.249 308.203 750.394 307.508 750.683 306.945C750.972 306.382 751.37 305.956 751.879 305.667C752.387 305.378 752.97 305.233 753.628 305.233C754.111 305.233 754.532 305.308 754.891 305.458C755.255 305.607 755.561 305.809 755.811 306.063C756.065 306.317 756.269 306.609 756.424 306.938C756.578 307.262 756.69 307.608 756.76 307.977C756.83 308.34 756.865 308.704 756.865 309.068V313.508H755.758ZM749.92 313.508V305.435H750.914V307.424H751.027V313.508H749.92ZM764.67 313.508V303.97L762.644 305.189V303.955L764.67 302.744H765.784V313.508H764.67ZM769.693 313.508L773.655 303.813H768.669V302.744H774.828V303.813L770.874 313.508H769.693Z" fill="#718096"/>
<path d="M826.231 313.725C825.513 313.725 824.898 313.526 824.385 313.127C823.871 312.728 823.525 312.195 823.346 311.527L824.445 311.266C824.534 311.659 824.741 311.993 825.065 312.267C825.394 312.536 825.78 312.671 826.224 312.671C826.503 312.671 826.784 312.604 827.068 312.469C827.357 312.335 827.584 312.113 827.748 311.804C827.858 311.59 827.92 311.358 827.935 311.109C827.955 310.855 827.965 310.551 827.965 310.197V302.744H829.072V310.197C829.072 310.496 829.069 310.767 829.064 311.012C829.059 311.251 829.032 311.482 828.982 311.707C828.937 311.926 828.85 312.148 828.72 312.372C828.461 312.825 828.112 313.164 827.674 313.389C827.24 313.613 826.759 313.725 826.231 313.725ZM834.135 313.732C833.527 313.732 833.016 313.623 832.603 313.404C832.194 313.184 831.888 312.893 831.683 312.529C831.479 312.165 831.377 311.769 831.377 311.34C831.377 310.902 831.464 310.528 831.638 310.219C831.818 309.905 832.06 309.649 832.364 309.449C832.673 309.25 833.029 309.098 833.432 308.993C833.841 308.894 834.292 308.806 834.785 308.732C835.284 308.652 835.77 308.585 836.243 308.53C836.721 308.47 837.14 308.413 837.499 308.358L837.11 308.597C837.125 307.8 836.971 307.209 836.647 306.826C836.323 306.442 835.76 306.25 834.957 306.25C834.404 306.25 833.936 306.375 833.552 306.624C833.173 306.873 832.907 307.267 832.752 307.805L831.683 307.491C831.868 306.768 832.239 306.208 832.797 305.809C833.355 305.41 834.08 305.211 834.972 305.211C835.71 305.211 836.335 305.35 836.849 305.63C837.367 305.904 837.733 306.302 837.947 306.826C838.047 307.06 838.112 307.321 838.142 307.61C838.172 307.899 838.187 308.193 838.187 308.492V313.508H837.207V311.482L837.491 311.602C837.217 312.295 836.791 312.823 836.213 313.187C835.635 313.551 834.942 313.732 834.135 313.732ZM834.262 312.783C834.775 312.783 835.224 312.691 835.608 312.507C835.991 312.322 836.3 312.07 836.535 311.752C836.769 311.428 836.921 311.064 836.991 310.66C837.05 310.401 837.083 310.117 837.088 309.808C837.093 309.494 837.095 309.26 837.095 309.105L837.514 309.322C837.14 309.372 836.734 309.422 836.295 309.472C835.862 309.522 835.433 309.579 835.01 309.644C834.591 309.708 834.212 309.786 833.874 309.875C833.644 309.94 833.423 310.032 833.208 310.152C832.994 310.267 832.817 310.421 832.678 310.615C832.543 310.81 832.476 311.051 832.476 311.34C832.476 311.575 832.533 311.801 832.648 312.021C832.767 312.24 832.957 312.422 833.216 312.566C833.48 312.711 833.829 312.783 834.262 312.783ZM846.461 313.508V309.389C846.461 308.941 846.419 308.53 846.334 308.156C846.25 307.777 846.113 307.448 845.923 307.169C845.739 306.885 845.497 306.666 845.198 306.512C844.904 306.357 844.545 306.28 844.122 306.28C843.733 306.28 843.389 306.347 843.09 306.482C842.796 306.616 842.547 306.811 842.343 307.065C842.143 307.314 841.991 307.618 841.887 307.977C841.782 308.335 841.73 308.744 841.73 309.203L840.952 309.031C840.952 308.203 841.097 307.508 841.386 306.945C841.675 306.382 842.074 305.956 842.582 305.667C843.09 305.378 843.673 305.233 844.331 305.233C844.814 305.233 845.235 305.308 845.594 305.458C845.958 305.607 846.265 305.809 846.514 306.063C846.768 306.317 846.972 306.609 847.127 306.938C847.281 307.262 847.393 307.608 847.463 307.977C847.533 308.34 847.568 308.704 847.568 309.068V313.508H846.461ZM840.623 313.508V305.435H841.618V307.424H841.73V313.508H840.623ZM855.373 313.508V303.97L853.348 305.189V303.955L855.373 302.744H856.487V313.508H855.373ZM863.102 313.732C862.429 313.732 861.834 313.598 861.316 313.329C860.802 313.06 860.399 312.683 860.105 312.2C859.816 311.712 859.671 311.141 859.671 310.488C859.671 309.821 859.833 309.227 860.157 308.709C860.481 308.186 860.974 307.79 861.637 307.521L861.622 307.954C861.069 307.75 860.648 307.416 860.359 306.953C860.07 306.489 859.925 305.976 859.925 305.413C859.925 304.815 860.062 304.301 860.336 303.873C860.61 303.439 860.984 303.105 861.458 302.871C861.936 302.637 862.484 302.52 863.102 302.52C863.72 302.52 864.268 302.637 864.747 302.871C865.225 303.105 865.601 303.439 865.875 303.873C866.149 304.301 866.286 304.815 866.286 305.413C866.286 305.976 866.147 306.487 865.868 306.945C865.594 307.404 865.173 307.74 864.605 307.954L864.567 307.521C865.23 307.785 865.726 308.179 866.055 308.702C866.389 309.225 866.556 309.821 866.556 310.488C866.556 311.141 866.409 311.712 866.115 312.2C865.821 312.683 865.414 313.06 864.896 313.329C864.378 313.598 863.78 313.732 863.102 313.732ZM863.102 312.678C863.78 312.678 864.331 312.492 864.754 312.118C865.178 311.739 865.389 311.196 865.389 310.488C865.389 309.771 865.18 309.227 864.762 308.859C864.343 308.485 863.79 308.298 863.102 308.298C862.414 308.298 861.864 308.485 861.45 308.859C861.037 309.227 860.83 309.771 860.83 310.488C860.83 311.196 861.039 311.739 861.458 312.118C861.876 312.492 862.424 312.678 863.102 312.678ZM863.102 307.237C863.7 307.237 864.186 307.085 864.56 306.781C864.933 306.472 865.12 306.016 865.12 305.413C865.12 304.81 864.933 304.359 864.56 304.06C864.186 303.756 863.7 303.604 863.102 303.604C862.504 303.604 862.018 303.756 861.644 304.06C861.276 304.359 861.091 304.81 861.091 305.413C861.091 306.016 861.276 306.472 861.644 306.781C862.018 307.085 862.504 307.237 863.102 307.237Z" fill="#718096"/>
<rect x="84.7168" y="188.121" width="49.8333" height="88.4542" rx="7.475" fill="#EEFFF6"/>
<rect x="174.417" y="169.433" width="49.8333" height="107.142" rx="7.475" fill="#EEFFF6"/>
<rect x="358.8" y="188.121" width="49.8333" height="88.4542" rx="7.475" fill="#EEFFF6"/>
<rect x="452.237" y="164.45" width="49.8333" height="112.125" rx="7.475" fill="#EEFFF6"/>
<rect x="544.429" y="225.496" width="49.8333" height="51.0792" rx="7.475" fill="#EEFFF6"/>
<rect x="636.621" y="128.321" width="49.8333" height="148.254" rx="7.475" fill="#EEFFF6"/>
<rect x="728.812" y="147.008" width="49.8333" height="129.567" rx="7.475" fill="#EEFFF6"/>
<rect x="818.513" y="169.433" width="49.8333" height="107.142" rx="7.475" fill="#EEFFF6"/>
<rect x="265.362" y="151.991" width="49.8333" height="124.583" rx="7.475" fill="#4E8D6D"/>
<defs>
<filter id="filter0_d_238_8506" x="235.463" y="82.225" width="118.959" height="83.6886" filterUnits="userSpaceOnUse" color-interpolation-filters="sRGB">
<feFlood flood-opacity="0" result="BackgroundImageFix"/>
<feColorMatrix in="SourceAlpha" type="matrix" values="0 0 0 0 0 0 0 0 0 0 0 0 0 0 0 0 0 0 127 0" result="hardAlpha"/>
<feOffset dx="4.98333" dy="4.98333"/>
<feGaussianBlur stdDeviation="9.96667"/>
<feComposite in2="hardAlpha" operator="out"/>
<feColorMatrix type="matrix" values="0 0 0 0 0.101961 0 0 0 0 0.12549 0 0 0 0 0.172549 0 0 0 0.08 0"/>
<feBlend mode="normal" in2="BackgroundImageFix" result="effect1_dropShadow_238_8506"/>
<feBlend mode="normal" in="SourceGraphic" in2="effect1_dropShadow_238_8506" result="shape"/>
</filter>
<clipPath id="clip0_238_8506">
<rect x="420.329" y="40.8999" width="32.3917" height="19.9333" rx="9.96667" fill="white"/>
</clipPath>
<clipPath id="clip1_238_8506">
<rect x="562.587" y="40.8999" width="32.3917" height="19.9333" rx="9.96667" fill="white"/>
</clipPath>
</defs>
</svg>
