<svg width="18" height="18" viewBox="0 0 18 18" fill="none" xmlns="http://www.w3.org/2000/svg">
<path d="M13.2625 6.8L11.2 4.7375L14.6375 1.3C14.0188 0.95625 13.2625 0.75 12.4375 0.75C9.75625 0.75 7.625 2.88125 7.625 5.5625C7.625 5.8375 7.625 6.1125 7.69375 6.3875C5.7 8.38125 1.9875 12.0938 1.575 12.5063C0.475 13.6063 0.475 15.325 1.575 16.425C2.675 17.525 4.39375 17.525 5.49375 16.425C5.90625 16.0125 9.61875 12.3 11.6125 10.3062C11.8875 10.375 12.1625 10.375 12.4375 10.375C15.1188 10.375 17.25 8.24375 17.25 5.5625C17.25 4.7375 17.0438 3.98125 16.7 3.3625L13.2625 6.8Z" stroke="#414354" stroke-width="1.375" stroke-miterlimit="10"/>
</svg>
