<svg width="15" height="18" viewBox="0 0 15 18" fill="none" xmlns="http://www.w3.org/2000/svg">
<path d="M1.85352 5.57812C1.85352 8.64609 4.36367 11.1562 7.43164 11.1562C10.4996 11.1562 13.0098 8.64609 13.0098 5.57812C13.0098 2.51016 10.4996 0 7.43164 0C4.36367 0 1.85352 2.51016 1.85352 5.57812ZM11.6973 5.57812C11.6973 7.92422 9.77773 9.84375 7.43164 9.84375C5.08555 9.84375 3.16602 7.92422 3.16602 5.57812C3.16602 3.23203 5.08555 1.3125 7.43164 1.3125C9.77773 1.3125 11.6973 3.23203 11.6973 5.57812Z" fill="#414354"/>
<path d="M0.935156 17.1281C2.67422 15.3891 4.97109 14.4375 7.43203 14.4375C9.89297 14.4375 12.1898 15.3891 13.9289 17.1281L14.8641 16.193C12.8789 14.2242 10.2375 13.125 7.43203 13.125C4.62656 13.125 1.98516 14.2242 0 16.193L0.935156 17.1281Z" fill="#414354"/>
</svg>
