<svg width="17" height="11" viewBox="0 0 17 11" fill="none" xmlns="http://www.w3.org/2000/svg">
<path d="M15.0312 0.75H7.90625C7.74879 0.750034 7.59779 0.812611 7.48647 0.923969L6.71875 1.69169L5.95103 0.923969C5.83971 0.812611 5.68871 0.750034 5.53125 0.75H1.96875C1.49633 0.75 1.04327 0.937667 0.709216 1.27172C0.375167 1.60576 0.1875 2.05883 0.1875 2.53125V8.46875C0.1875 8.94117 0.375167 9.39423 0.709216 9.72828C1.04327 10.0623 1.49633 10.25 1.96875 10.25H5.53125C5.68871 10.25 5.83971 10.1874 5.95103 10.076L6.71875 9.30831L7.48647 10.076C7.59779 10.1874 7.74879 10.25 7.90625 10.25H15.0312C15.5037 10.25 15.9567 10.0623 16.2908 9.72828C16.6248 9.39423 16.8125 8.94117 16.8125 8.46875V2.53125C16.8125 2.05883 16.6248 1.60576 16.2908 1.27172C15.9567 0.937667 15.5037 0.75 15.0312 0.75ZM15.625 8.46875C15.625 8.62622 15.5624 8.77725 15.4511 8.8886C15.3397 8.99994 15.1887 9.0625 15.0312 9.0625H8.15206L7.13853 8.04897C7.02719 7.93766 6.87619 7.87513 6.71875 7.87513C6.56131 7.87513 6.41031 7.93766 6.29897 8.04897L5.28544 9.0625H1.96875C1.81128 9.0625 1.66026 8.99994 1.54891 8.8886C1.43756 8.77725 1.375 8.62622 1.375 8.46875V2.53125C1.375 2.37378 1.43756 2.22276 1.54891 2.11141C1.66026 2.00006 1.81128 1.9375 1.96875 1.9375H5.28544L6.29897 2.95103C6.41031 3.06234 6.56131 3.12487 6.71875 3.12487C6.87619 3.12487 7.02719 3.06234 7.13853 2.95103L8.15206 1.9375H15.0312C15.1887 1.9375 15.3397 2.00006 15.4511 2.11141C15.5624 2.22276 15.625 2.37378 15.625 2.53125V8.46875Z" fill="#414354"/>
<path d="M6.71875 4.3125C6.56128 4.3125 6.41026 4.37506 6.29891 4.48641C6.18756 4.59776 6.125 4.74878 6.125 4.90625V6.09375C6.125 6.25122 6.18756 6.40225 6.29891 6.5136C6.41026 6.62494 6.56128 6.6875 6.71875 6.6875C6.87622 6.6875 7.02724 6.62494 7.13859 6.5136C7.24994 6.40225 7.3125 6.25122 7.3125 6.09375V4.90625C7.3125 4.74878 7.24994 4.59776 7.13859 4.48641C7.02724 4.37506 6.87622 4.3125 6.71875 4.3125Z" fill="#414354"/>
<path d="M12.3143 2.56093C11.5163 2.69156 10.7813 3.07518 10.2178 3.65521C8.93885 4.93415 8.72569 6.80209 9.74279 7.81977C9.95991 8.03234 10.2174 8.19928 10.5001 8.31074C10.7828 8.4222 11.0849 8.47592 11.3887 8.46874C11.5299 8.46859 11.671 8.45827 11.8108 8.43787C12.605 8.29605 13.3367 7.91421 13.9072 7.3438C14.4777 6.77339 14.8597 6.04182 15.0016 5.24765C15.0778 4.87862 15.061 4.49646 14.9529 4.1355C14.8448 3.77455 14.6487 3.4461 14.3823 3.17966C14.1159 2.91322 13.7874 2.71715 13.4265 2.60905C13.0655 2.50095 12.6833 2.48421 12.3143 2.56034V2.56093ZM11.0573 4.49477C11.4407 4.09841 11.9394 3.83308 12.4823 3.73655C12.5644 3.72491 12.6471 3.71896 12.7299 3.71874C12.8144 3.71883 12.8986 3.72639 12.9817 3.7413L10.3098 6.41318C10.2788 6.05749 10.3302 5.69945 10.4598 5.36678C10.5894 5.0341 10.7939 4.73573 11.0573 4.49477ZM13.826 5.08021C13.7297 5.62323 13.4643 6.12196 13.0678 6.50521C12.6863 6.90419 12.1868 7.17017 11.6428 7.26402C11.4787 7.28738 11.3118 7.28397 11.1488 7.25393L13.8159 4.5868C13.8453 4.74971 13.8487 4.91624 13.826 5.08021Z" fill="#414354"/>
</svg>
